<svg width="17" height="17" viewBox="0 0 17 17" fill="none" xmlns="http://www.w3.org/2000/svg">
<path d="M2.83398 5.6665H14.1673M2.83398 5.6665V11.8998C2.83398 12.6932 2.83398 13.0898 2.9884 13.393C3.12422 13.6596 3.34093 13.8763 3.60748 14.0121C3.90994 14.1665 4.30661 14.1665 5.09853 14.1665H11.9028C12.6947 14.1665 13.0907 14.1665 13.3931 14.0121C13.6602 13.8761 13.8769 13.6593 14.0129 13.393C14.1673 13.0898 14.1673 12.6946 14.1673 11.9027V5.6665M2.83398 5.6665V5.09984C2.83398 4.3065 2.83398 3.90984 2.9884 3.60667C3.1244 3.33963 3.34044 3.12359 3.60748 2.98759C3.91065 2.83317 4.30732 2.83317 5.10065 2.83317H5.66732M14.1673 5.6665V5.09771C14.1673 4.3058 14.1673 3.90913 14.0129 3.60667C13.8769 3.34004 13.6599 3.12333 13.3931 2.98759C13.0907 2.83317 12.694 2.83317 11.9007 2.83317H11.334M5.66732 2.83317H11.334M5.66732 2.83317V1.4165M11.334 2.83317V1.4165" stroke="#757575" stroke-opacity="0.7" stroke-width="2" stroke-linecap="round" stroke-linejoin="round"/>
</svg>
