<svg width="46" height="39" viewBox="0 0 46 39" fill="none" xmlns="http://www.w3.org/2000/svg">
<path d="M20.0469 27.8471C20.0469 27.316 20.2942 26.8067 20.7343 26.4312C21.1745 26.0556 21.7714 25.8447 22.3939 25.8447C23.0164 25.8447 23.6134 26.0556 24.0535 26.4312C24.4937 26.8067 24.741 27.316 24.741 27.8471C24.741 28.3782 24.4937 28.8875 24.0535 29.263C23.6134 29.6386 23.0164 29.8495 22.3939 29.8495C21.7714 29.8495 21.1745 29.6386 20.7343 29.263C20.2942 28.8875 20.0469 28.3782 20.0469 27.8471ZM20.0469 19.8374C20.0469 19.3063 20.2942 18.797 20.7343 18.4215C21.1745 18.0459 21.7714 17.835 22.3939 17.835C23.0164 17.835 23.6134 18.0459 24.0535 18.4215C24.4937 18.797 24.741 19.3063 24.741 19.8374C24.741 20.3685 24.4937 20.8778 24.0535 21.2533C23.6134 21.6288 23.0164 21.8398 22.3939 21.8398C21.7714 21.8398 21.1745 21.6288 20.7343 21.2533C20.2942 20.8778 20.0469 20.3685 20.0469 19.8374ZM20.0469 11.8277C20.0469 11.2966 20.2942 10.7873 20.7343 10.4118C21.1745 10.0362 21.7714 9.82526 22.3939 9.82526C23.0164 9.82526 23.6134 10.0362 24.0535 10.4118C24.4937 10.7873 24.741 11.2966 24.741 11.8277C24.741 12.3588 24.4937 12.8681 24.0535 13.2436C23.6134 13.6191 23.0164 13.8301 22.3939 13.8301C21.7714 13.8301 21.1745 13.6191 20.7343 13.2436C20.2942 12.8681 20.0469 12.3588 20.0469 11.8277Z" fill="#757575"/>
</svg>
