<svg width="25" height="25" viewBox="0 0 25 25" fill="none" xmlns="http://www.w3.org/2000/svg">
<path d="M12.4987 15.6247C12.7938 15.6247 13.0414 15.5247 13.2414 15.3247C13.4414 15.1247 13.5411 14.8775 13.5404 14.583C13.5397 14.2886 13.4397 14.0413 13.2404 13.8413C13.0411 13.6413 12.7938 13.5413 12.4987 13.5413C12.2036 13.5413 11.9563 13.6413 11.757 13.8413C11.5577 14.0413 11.4577 14.2886 11.457 14.583C11.4563 14.8775 11.5563 15.125 11.757 15.3257C11.9577 15.5264 12.2049 15.6261 12.4987 15.6247ZM11.457 11.458H13.5404V5.20801H11.457V11.458ZM2.08203 22.9163V4.16634C2.08203 3.59342 2.2862 3.10315 2.69453 2.69551C3.10286 2.28787 3.59314 2.0837 4.16536 2.08301H20.832C21.4049 2.08301 21.8956 2.28717 22.3039 2.69551C22.7122 3.10384 22.9161 3.59412 22.9154 4.16634V16.6663C22.9154 17.2393 22.7115 17.7299 22.3039 18.1382C21.8963 18.5465 21.4056 18.7504 20.832 18.7497H6.2487L2.08203 22.9163ZM5.36328 16.6663H20.832V4.16634H4.16536V17.8382L5.36328 16.6663Z" fill="#387ADF"/>
</svg>
