<svg width="13" height="15" viewBox="0 0 13 15" fill="none" xmlns="http://www.w3.org/2000/svg">
<path d="M2 12.4362H2.86V11.6298H3.25C3.87 11.6298 4.39 11.2266 4.39 10.68C4.39 10.1335 3.89 9.73926 3.25 9.73926H2V12.4272V12.4362ZM2.86 11.0116V10.3665H3.16C3.36 10.3665 3.53 10.4829 3.53 10.68C3.53 10.8772 3.37 11.0026 3.16 11.0026H2.86V11.0116ZM5.19 12.4362H6.38C7.38 12.4362 8 11.9076 8 11.0743C8 10.2948 7.38 9.74822 6.38 9.74822H5.19V12.4362ZM6.05 11.8V10.3754H6.34C6.67 10.3754 7.12 10.5188 7.12 11.0743C7.12 11.6567 6.67 11.8 6.34 11.8H6.05ZM9 12.4362H9.86V11.4775H10.92V10.8592H9.86V10.3754H11.07V9.75718H9.01V12.4452L9 12.4362Z" fill="#AAAAAA"/>
<path d="M11.5 14.3359H1.5C0.67 14.3359 0 13.7356 0 12.9919V1.34399C0 0.600315 0.67 0 1.5 0H8.59C8.99 0 9.37 0.143359 9.65 0.394236L12.56 3.00157C12.84 3.25245 13 3.59293 13 3.95132V12.9919C13 13.7356 12.33 14.3359 11.5 14.3359ZM1.5 0.895992C1.22 0.895992 1 1.09311 1 1.34399V12.9919C1 13.2428 1.22 13.4399 1.5 13.4399H11.5C11.78 13.4399 12 13.2428 12 12.9919V3.95132C12.0008 3.89257 11.9879 3.83431 11.962 3.7803C11.9362 3.7263 11.898 3.67773 11.85 3.63773L8.94 1.03039C8.84768 0.945982 8.72188 0.897675 8.59 0.895992H1.5Z" fill="#FF0000"/>
<path d="M11.38 5.26892H8.47C7.66 5.26892 7 4.67757 7 3.95182V1.34448C7 1.0936 7.22 0.896484 7.5 0.896484C7.78 0.896484 8 1.0936 8 1.34448V3.95182C8 4.18477 8.21 4.37293 8.47 4.37293H11.38C11.66 4.37293 11.88 4.57005 11.88 4.82093C11.88 5.07181 11.66 5.26892 11.38 5.26892Z" fill="#FF0000"/>
</svg>
