<svg width="70" height="70" viewBox="0 0 70 70" fill="none" xmlns="http://www.w3.org/2000/svg">
<path d="M35 4.2002C28.943 4.2002 23.0219 5.99632 17.9857 9.36144C12.9494 12.7266 9.02414 17.5095 6.7062 23.1055C4.38827 28.7015 3.78179 34.8592 4.96346 40.7998C6.14514 46.7405 9.06189 52.1974 13.3449 56.4803C17.6279 60.7633 23.0847 63.6801 29.0254 64.8617C34.966 66.0434 41.1237 65.4369 46.7197 63.119C52.3157 60.8011 57.0987 56.8758 60.4638 51.8395C63.8289 46.8033 65.625 40.8822 65.625 34.8252C65.625 26.7029 62.3985 18.9134 56.6552 13.17C50.9119 7.42675 43.1223 4.2002 35 4.2002ZM35 61.0752C29.8083 61.0752 24.7331 59.5357 20.4163 56.6513C16.0995 53.7669 12.735 49.6672 10.7482 44.8706C8.76138 40.0741 8.24154 34.7961 9.2544 29.7041C10.2673 24.6121 12.7673 19.9348 16.4385 16.2636C20.1096 12.5925 24.7869 10.0924 29.8789 9.07958C34.9709 8.06672 40.2489 8.58656 45.0455 10.5734C49.842 12.5602 53.9417 15.9247 56.8261 20.2415C59.7105 24.5583 61.25 29.6334 61.25 34.8252C61.25 41.7871 58.4844 48.4639 53.5616 53.3867C48.6387 58.3096 41.9619 61.0752 35 61.0752Z" fill="#FF7A00" fill-opacity="0.6"/>
<path d="M32.8125 17.5H37.1875V41.5625H32.8125V17.5ZM35 48.125C34.351 48.125 33.7166 48.3174 33.177 48.678C32.6374 49.0385 32.2169 49.551 31.9685 50.1506C31.7202 50.7501 31.6552 51.4099 31.7818 52.0464C31.9084 52.6829 32.2209 53.2676 32.6798 53.7264C33.1387 54.1853 33.7234 54.4978 34.3599 54.6245C34.9964 54.7511 35.6561 54.6861 36.2557 54.4377C36.8552 54.1894 37.3677 53.7688 37.7283 53.2292C38.0888 52.6896 38.2813 52.0552 38.2813 51.4062C38.2813 50.536 37.9355 49.7014 37.3202 49.0861C36.7048 48.4707 35.8702 48.125 35 48.125Z" fill="#FF7A00" fill-opacity="0.6"/>
</svg>
