<svg width="17" height="17" viewBox="0 0 17 17" fill="none" xmlns="http://www.w3.org/2000/svg">
<path fill-rule="evenodd" clip-rule="evenodd" d="M5.1 0.809524C5.1 0.362436 4.71944 0 4.25 0C3.78056 0 3.4 0.362436 3.4 0.809524V1.61905H2.55C1.8737 1.61905 1.2251 1.87491 0.746878 2.33036C0.26866 2.7858 0 3.40352 0 4.04762V14.5714C0 15.2155 0.26866 15.8332 0.746878 16.2887C1.2251 16.7441 1.8737 17 2.55 17H14.45C15.1263 17 15.7749 16.7441 16.2531 16.2887C16.7313 15.8332 17 15.2155 17 14.5714V4.04762C17 3.40352 16.7313 2.7858 16.2531 2.33036C15.7749 1.87491 15.1263 1.61905 14.45 1.61905H14.025C13.5556 1.61905 13.175 1.98148 13.175 2.42857C13.175 2.87566 13.5556 3.2381 14.025 3.2381H14.45C14.6754 3.2381 14.8916 3.32338 15.051 3.4752C15.2104 3.62701 15.3 3.83292 15.3 4.04762V6.47619H1.7V4.04762C1.7 3.83292 1.78955 3.62701 1.94896 3.4752C2.10836 3.32338 2.32457 3.2381 2.55 3.2381H3.4V4.04762C3.4 4.49471 3.78056 4.85714 4.25 4.85714C4.71944 4.85714 5.1 4.49471 5.1 4.04762V0.809524ZM1.94896 15.1438C1.78955 14.992 1.7 14.7861 1.7 14.5714V8.09524H15.3V14.5714C15.3 14.7861 15.2104 14.992 15.051 15.1438C14.8916 15.2957 14.6754 15.381 14.45 15.381H2.55C2.32457 15.381 2.10837 15.2957 1.94896 15.1438Z" fill="#757575" fill-opacity="0.5"/>
<path d="M11.9 0.809524C11.9 0.362436 11.5194 0 11.05 0C10.5806 0 10.2 0.362436 10.2 0.809524V1.61905H7.225C6.75556 1.61905 6.375 1.98148 6.375 2.42857C6.375 2.87566 6.75556 3.2381 7.225 3.2381H10.2V4.04762C10.2 4.49471 10.5806 4.85714 11.05 4.85714C11.5194 4.85714 11.9 4.49471 11.9 4.04762V0.809524Z" fill="#757575" fill-opacity="0.5"/>
</svg>
