<svg width="16" height="18" viewBox="0 0 16 18" fill="none" xmlns="http://www.w3.org/2000/svg">
<path fill-rule="evenodd" clip-rule="evenodd" d="M4.04102 7.33333C4.04102 6.28352 4.45805 5.2767 5.20038 4.53437C5.94272 3.79204 6.94953 3.375 7.99935 3.375C9.04916 3.375 10.056 3.79204 10.7983 4.53437C11.5406 5.2767 11.9577 6.28352 11.9577 7.33333C11.9577 8.38315 11.5406 9.38997 10.7983 10.1323C10.056 10.8746 9.04916 11.2917 7.99935 11.2917C6.94953 11.2917 5.94272 10.8746 5.20038 10.1323C4.45805 9.38997 4.04102 8.38315 4.04102 7.33333ZM7.99935 4.625C7.28105 4.625 6.59218 4.91034 6.08427 5.41825C5.57636 5.92616 5.29102 6.61504 5.29102 7.33333C5.29102 8.05163 5.57636 8.7405 6.08427 9.24841C6.59218 9.75632 7.28105 10.0417 7.99935 10.0417C8.71764 10.0417 9.40652 9.75632 9.91443 9.24841C10.4223 8.7405 10.7077 8.05163 10.7077 7.33333C10.7077 6.61504 10.4223 5.92616 9.91443 5.41825C9.40652 4.91034 8.71764 4.625 7.99935 4.625Z" fill="#B1AEAE"/>
<path fill-rule="evenodd" clip-rule="evenodd" d="M0.936329 6.38067C1.07877 4.65301 1.86568 3.04208 3.14084 1.86773C4.416 0.693384 6.08614 0.0414986 7.81966 0.0415039H8.17966C9.91319 0.0414986 11.5833 0.693384 12.8585 1.86773C14.1336 3.04208 14.9206 4.65301 15.063 6.38067C15.2215 8.30507 14.627 10.2159 13.4047 11.7107L9.4105 16.5948C9.23956 16.8039 9.02432 16.9723 8.78032 17.088C8.53633 17.2036 8.26968 17.2636 7.99966 17.2636C7.72964 17.2636 7.463 17.2036 7.219 17.088C6.97501 16.9723 6.75976 16.8039 6.58883 16.5948L2.59466 11.7107C1.37226 10.2159 0.777734 8.30508 0.936329 6.38067ZM7.81966 1.2915C6.40006 1.29172 5.03244 1.82569 3.98826 2.78744C2.94408 3.74918 2.29969 5.06838 2.183 6.48317C2.051 8.08472 2.54573 9.67499 3.563 10.919L7.55716 15.804C7.61086 15.8697 7.67849 15.9227 7.75516 15.959C7.83184 15.9954 7.91564 16.0143 8.0005 16.0143C8.08536 16.0143 8.16916 15.9954 8.24583 15.959C8.32251 15.9227 8.39014 15.8697 8.44383 15.804L12.438 10.919C13.4547 9.67474 13.9488 8.0845 13.8163 6.48317C13.6996 5.06823 13.0551 3.74892 12.0108 2.78716C10.9664 1.82539 9.59857 1.29151 8.17883 1.2915H7.81966Z" fill="#B1AEAE"/>
</svg>
