<svg width="18" height="17" viewBox="0 0 18 17" fill="none" xmlns="http://www.w3.org/2000/svg">
<path d="M9.19727 0C5.92052 0 3.24727 2.43023 3.24727 5.40909C3.24727 7.27136 4.29277 8.925 5.87717 9.90095C2.84522 11.0832 0.697266 13.8187 0.697266 17H2.39727C2.39727 13.5768 5.43177 10.8182 9.19727 10.8182C12.9628 10.8182 15.9973 13.5768 15.9973 17H17.6973C17.6973 13.8187 15.5493 11.084 12.5174 9.90018C13.326 9.40392 13.9886 8.73506 14.447 7.95213C14.9055 7.1692 15.1459 6.29605 15.1473 5.40909C15.1473 2.43023 12.474 0 9.19727 0ZM9.19727 1.54545C11.5543 1.54545 13.4473 3.26632 13.4473 5.40909C13.4473 7.55186 11.5543 9.27273 9.19727 9.27273C6.84022 9.27273 4.94727 7.55186 4.94727 5.40909C4.94727 3.26632 6.84022 1.54545 9.19727 1.54545Z" fill="#757575" fill-opacity="0.5"/>
</svg>
