<svg width="17" height="17" viewBox="0 0 17 17" fill="none" xmlns="http://www.w3.org/2000/svg">
<path d="M11.6631 11.6159L12.0606 11.1996L11.1375 10.2219L10.7417 10.6382L11.6631 11.6159ZM13.3933 11.025L15.0591 11.9798L15.6823 10.7687L14.0174 9.81481L13.3933 11.025ZM15.379 13.8765L14.1412 15.175L15.0626 16.1518L16.3003 14.8542L15.379 13.8765ZM13.3864 15.5921C12.1224 15.7171 8.85369 15.6059 5.31297 11.8953L4.39074 12.8721C8.25398 16.9218 11.9315 17.1203 13.5084 16.965L13.3864 15.5921ZM5.31297 11.8953C1.93874 8.35738 1.37913 5.38279 1.3094 4.09168L0.00363777 4.16979C0.0908046 5.79447 0.783781 9.09161 4.39074 12.8721L5.31297 11.8953ZM6.51151 6.21626L6.76168 5.95344L5.8412 4.97662L5.59103 5.23851L6.51151 6.21626ZM6.95955 2.61312L5.86212 1.06563L4.81525 1.89267L5.91355 3.43924L6.95955 2.61312ZM2.16537 0.728384L0.796856 2.16192L1.71908 3.13967L3.08673 1.70613L2.16537 0.728384ZM6.05127 5.72739C5.58929 5.23851 5.58929 5.24035 5.58929 5.24035H5.58755L5.58493 5.24403C5.54377 5.28831 5.50671 5.33662 5.47423 5.3883C5.42716 5.46181 5.37573 5.5583 5.33215 5.68052C5.226 5.99601 5.19957 6.33518 5.25544 6.6647C5.37224 7.45958 5.89176 8.50992 7.22192 9.90486L8.14328 8.92712C6.89766 7.62223 6.60217 6.82827 6.54725 6.45334C6.5211 6.27507 6.54812 6.18685 6.55597 6.16664C6.56033 6.15377 6.56207 6.15285 6.55597 6.16112C6.54828 6.17387 6.53953 6.18586 6.52982 6.19696L6.5211 6.20615C6.51828 6.20901 6.51538 6.21177 6.51239 6.21442L6.05127 5.72739ZM7.22192 9.90486C8.55296 11.2998 9.55451 11.8438 10.3094 11.9651C10.6955 12.0276 11.0067 11.978 11.2429 11.8852C11.375 11.8336 11.4986 11.7604 11.609 11.6683C11.624 11.6551 11.6386 11.6413 11.6526 11.6269L11.6587 11.6214L11.6613 11.6187L11.6622 11.6168C11.6622 11.6168 11.6631 11.6159 11.202 11.127C10.74 10.6382 10.7426 10.6373 10.7426 10.6373L10.7443 10.6354L10.7461 10.6336L10.7513 10.629L10.76 10.6198C10.7705 10.6099 10.7816 10.6007 10.7931 10.5922C10.8019 10.5858 10.7992 10.5885 10.787 10.5941C10.7653 10.6023 10.6798 10.6308 10.5081 10.6033C10.1472 10.5444 9.38802 10.232 8.14328 8.92712L7.22192 9.90486ZM5.86212 1.06563C4.97302 -0.184118 3.2262 -0.383527 2.16537 0.728384L3.08673 1.70613C3.55046 1.22001 4.37331 1.27056 4.81525 1.89267L5.86212 1.06563ZM1.31027 4.0926C1.29283 3.77465 1.43143 3.44108 1.71908 3.13967L0.795984 2.16284C0.327899 2.65355 -0.0408173 3.34827 0.00363777 4.16979L1.31027 4.0926ZM14.1412 15.175C13.9024 15.4267 13.6444 15.5683 13.3872 15.5931L13.5084 16.965C14.1491 16.9016 14.6729 16.5616 15.0635 16.1527L14.1412 15.175ZM6.76168 5.95344C7.62028 5.05381 7.68391 3.63222 6.96129 2.61404L5.91442 3.44016C6.2657 3.93547 6.2134 4.58515 5.84033 4.97754L6.76168 5.95344ZM15.06 11.9807C15.7721 12.3887 15.8828 13.3499 15.3799 13.8774L16.3021 14.8542C17.4701 13.6293 17.1101 11.5865 15.6832 10.7696L15.06 11.9807ZM12.0606 11.1996C12.3953 10.8486 12.934 10.7631 13.3942 11.026L14.0183 9.81573C13.0734 9.27355 11.9019 9.42334 11.1383 10.2228L12.0606 11.1996Z" fill="#757575" fill-opacity="0.5"/>
</svg>
