<svg width="16" height="18" viewBox="0 0 16 18" fill="none" xmlns="http://www.w3.org/2000/svg">
<path d="M1.616 18C1.17133 18 0.791 17.8417 0.475 17.525C0.159 17.2083 0.000666667 16.8287 0 16.386V3.615C0 3.171 0.158333 2.791 0.475 2.475C0.791667 2.159 1.17167 2.00067 1.615 2H6.315C6.22433 1.48933 6.34667 1.02833 6.682 0.617C7.01667 0.205667 7.45933 0 8.01 0C8.56067 0 9.00333 0.205667 9.338 0.617C9.67267 1.02833 9.78833 1.48933 9.685 2H14.385C14.829 2 15.209 2.15833 15.525 2.475C15.841 2.79167 15.9993 3.17167 16 3.615V16.385C16 16.829 15.8417 17.209 15.525 17.525C15.2083 17.841 14.8283 17.9993 14.385 18H1.616ZM1.616 17H14.385C14.5383 17 14.6793 16.936 14.808 16.808C14.9367 16.68 15.0007 16.5387 15 16.384V3.616C15 3.462 14.936 3.32067 14.808 3.192C14.68 3.06333 14.5387 2.99933 14.384 3H1.616C1.462 3 1.32067 3.064 1.192 3.192C1.06333 3.32 0.999333 3.46133 1 3.616V16.385C1 16.5383 1.064 16.6793 1.192 16.808C1.32 16.9367 1.461 17.0007 1.615 17M4 14.27H9C9.142 14.27 9.26067 14.2217 9.356 14.125C9.45133 14.0283 9.49933 13.9097 9.5 13.769C9.50067 13.6283 9.45267 13.5097 9.356 13.413C9.25933 13.3163 9.14067 13.2683 9 13.269H4C3.858 13.269 3.73933 13.317 3.644 13.413C3.548 13.509 3.5 13.628 3.5 13.77C3.5 13.912 3.548 14.0307 3.644 14.126C3.74 14.2213 3.85867 14.269 4 14.269M4 10.5H12C12.142 10.5 12.2607 10.452 12.356 10.356C12.4513 10.26 12.4993 10.141 12.5 9.999C12.5007 9.857 12.4527 9.73833 12.356 9.643C12.2593 9.54767 12.1407 9.5 12 9.5H4C3.858 9.5 3.73933 9.548 3.644 9.644C3.54867 9.74 3.50067 9.859 3.5 10.001C3.49933 10.143 3.54733 10.2617 3.644 10.357C3.74067 10.4523 3.85933 10.5 4 10.5ZM4 6.73H12C12.142 6.73 12.2607 6.68233 12.356 6.587C12.452 6.491 12.5 6.372 12.5 6.23C12.5 6.088 12.452 5.96933 12.356 5.874C12.26 5.77867 12.1413 5.731 12 5.731H4C3.858 5.731 3.73933 5.779 3.644 5.875C3.54867 5.971 3.50067 6.09 3.5 6.232C3.49933 6.374 3.54733 6.49267 3.644 6.588C3.74067 6.68333 3.85933 6.73067 4 6.73ZM8 2.441C8.21667 2.441 8.396 2.37033 8.538 2.229C8.68 2.08767 8.75067 1.90833 8.75 1.691C8.74933 1.47367 8.67833 1.29467 8.537 1.154C8.39567 1.01333 8.21667 0.942667 8 0.942C7.78333 0.941333 7.60433 1.01233 7.463 1.155C7.32167 1.29767 7.25067 1.47667 7.25 1.692C7.24933 1.90733 7.32033 2.08667 7.463 2.23C7.60567 2.37333 7.78467 2.443 8 2.441Z" fill="#387ADF"/>
</svg>
