<svg width="36" height="36" viewBox="0 0 36 36" fill="none" xmlns="http://www.w3.org/2000/svg">
<path d="M8.424 30C7.757 30 7.1865 29.7625 6.7125 29.2875C6.2385 28.8125 6.001 28.243 6 27.579V8.4225C6 7.7565 6.2375 7.1865 6.7125 6.7125C7.1875 6.2385 7.7575 6.001 8.4225 6H15.4725C15.3365 5.234 15.52 4.5425 16.023 3.9255C16.525 3.3085 17.189 3 18.015 3C18.841 3 19.505 3.3085 20.007 3.9255C20.509 4.5425 20.6825 5.234 20.5275 6H27.5775C28.2435 6 28.8135 6.2375 29.2875 6.7125C29.7615 7.1875 29.999 7.7575 30 8.4225V27.5775C30 28.2435 29.7625 28.8135 29.2875 29.2875C28.8125 29.7615 28.2425 29.999 27.5775 30H8.424ZM8.424 28.5H27.5775C27.8075 28.5 28.019 28.404 28.212 28.212C28.405 28.02 28.501 27.808 28.5 27.576V8.424C28.5 8.193 28.404 7.981 28.212 7.788C28.02 7.595 27.808 7.499 27.576 7.5H8.424C8.193 7.5 7.981 7.596 7.788 7.788C7.595 7.98 7.499 8.192 7.5 8.424V27.5775C7.5 27.8075 7.596 28.019 7.788 28.212C7.98 28.405 8.1915 28.501 8.4225 28.5M12 24.405H19.5C19.713 24.405 19.891 24.3325 20.034 24.1875C20.177 24.0425 20.249 23.8645 20.25 23.6535C20.251 23.4425 20.179 23.2645 20.034 23.1195C19.889 22.9745 19.711 22.9025 19.5 22.9035H12C11.787 22.9035 11.609 22.9755 11.466 23.1195C11.322 23.2635 11.25 23.442 11.25 23.655C11.25 23.868 11.322 24.046 11.466 24.189C11.61 24.332 11.788 24.4035 12 24.4035M12 18.75H24C24.213 18.75 24.391 18.678 24.534 18.534C24.677 18.39 24.749 18.2115 24.75 17.9985C24.751 17.7855 24.679 17.6075 24.534 17.4645C24.389 17.3215 24.211 17.25 24 17.25H12C11.787 17.25 11.609 17.322 11.466 17.466C11.323 17.61 11.251 17.7885 11.25 18.0015C11.249 18.2145 11.321 18.3925 11.466 18.5355C11.611 18.6785 11.789 18.75 12 18.75ZM12 13.095H24C24.213 13.095 24.391 13.0235 24.534 12.8805C24.678 12.7365 24.75 12.558 24.75 12.345C24.75 12.132 24.678 11.954 24.534 11.811C24.39 11.668 24.212 11.5965 24 11.5965H12C11.787 11.5965 11.609 11.6685 11.466 11.8125C11.323 11.9565 11.251 12.135 11.25 12.348C11.249 12.561 11.321 12.739 11.466 12.882C11.611 13.025 11.789 13.096 12 13.095ZM18 6.6615C18.325 6.6615 18.594 6.5555 18.807 6.3435C19.02 6.1315 19.126 5.8625 19.125 5.5365C19.124 5.2105 19.0175 4.942 18.8055 4.731C18.5935 4.52 18.325 4.414 18 4.413C17.675 4.412 17.4065 4.5185 17.1945 4.7325C16.9825 4.9465 16.876 5.215 16.875 5.538C16.874 5.861 16.9805 6.13 17.1945 6.345C17.4085 6.56 17.677 6.6645 18 6.6615Z" fill="#00BFFF"/>
</svg>
