<svg width="20" height="20" viewBox="0 0 20 20" fill="none" xmlns="http://www.w3.org/2000/svg">
<path fill-rule="evenodd" clip-rule="evenodd" d="M6.66601 1.66683C6.66601 1.20659 6.29292 0.833496 5.83268 0.833496C5.37244 0.833496 4.99935 1.20659 4.99935 1.66683V2.50016H4.16602C3.50297 2.50016 2.86709 2.76355 2.39825 3.2324C1.92941 3.70124 1.66602 4.33712 1.66602 5.00016V15.8335C1.66602 16.4965 1.92941 17.1324 2.39825 17.6013C2.86709 18.0701 3.50297 18.3335 4.16602 18.3335H15.8327C16.4957 18.3335 17.1316 18.0701 17.6004 17.6013C18.0693 17.1324 18.3327 16.4965 18.3327 15.8335V5.00016C18.3327 4.33712 18.0693 3.70124 17.6004 3.2324C17.1316 2.76355 16.4957 2.50016 15.8327 2.50016H15.416C14.9558 2.50016 14.5827 2.87326 14.5827 3.3335C14.5827 3.79373 14.9558 4.16683 15.416 4.16683H15.8327C16.0537 4.16683 16.2657 4.25463 16.4219 4.41091C16.5782 4.56719 16.666 4.77915 16.666 5.00016V7.50016H3.33268V5.00016C3.33268 4.77915 3.42048 4.56719 3.57676 4.41091C3.73304 4.25463 3.945 4.16683 4.16602 4.16683H4.99935V5.00016C4.99935 5.4604 5.37244 5.8335 5.83268 5.8335C6.29292 5.8335 6.66601 5.4604 6.66601 5.00016V1.66683ZM3.57676 16.4228C3.42048 16.2665 3.33268 16.0545 3.33268 15.8335V9.16683H16.666V15.8335C16.666 16.0545 16.5782 16.2665 16.4219 16.4228C16.2657 16.579 16.0537 16.6668 15.8327 16.6668H4.16602C3.945 16.6668 3.73304 16.579 3.57676 16.4228Z" fill="black"/>
<path d="M13.3327 1.66683C13.3327 1.20659 12.9596 0.833496 12.4993 0.833496C12.0391 0.833496 11.666 1.20659 11.666 1.66683V2.50016H8.74935C8.28911 2.50016 7.91601 2.87326 7.91601 3.3335C7.91601 3.79373 8.28911 4.16683 8.74935 4.16683H11.666V5.00016C11.666 5.4604 12.0391 5.8335 12.4993 5.8335C12.9596 5.8335 13.3327 5.4604 13.3327 5.00016V1.66683Z" fill="black"/>
</svg>
