<svg width="24" height="25" viewBox="0 0 24 25" fill="none" xmlns="http://www.w3.org/2000/svg">
<rect x="3.94922" y="4.34814" width="19" height="18" rx="2" stroke="#757575" stroke-width="2"/>
<path fill-rule="evenodd" clip-rule="evenodd" d="M19.8762 7.55516C20.063 7.75726 20.168 8.03134 20.168 8.31711C20.168 8.60288 20.063 8.87696 19.8762 9.07906L12.4072 17.157C12.3085 17.2637 12.1913 17.3484 12.0623 17.4062C11.9333 17.464 11.7951 17.4938 11.6555 17.4938C11.5159 17.4938 11.3777 17.464 11.2487 17.4062C11.1197 17.3484 11.0025 17.2637 10.9038 17.157L7.19289 13.1442C7.09771 13.0448 7.0218 12.9259 6.96957 12.7944C6.91735 12.6629 6.88986 12.5215 6.88871 12.3784C6.88756 12.2353 6.91277 12.0934 6.96288 11.9609C7.01298 11.8285 7.08697 11.7082 7.18054 11.607C7.2741 11.5058 7.38536 11.4258 7.50782 11.3716C7.63029 11.3174 7.76151 11.2901 7.89382 11.2914C8.02613 11.2926 8.15689 11.3223 8.27847 11.3788C8.40004 11.4353 8.51 11.5174 8.60192 11.6203L11.6552 14.9225L18.4665 7.55516C18.559 7.45501 18.6689 7.37556 18.7899 7.32136C18.9108 7.26716 19.0404 7.23926 19.1714 7.23926C19.3023 7.23926 19.4319 7.26716 19.5528 7.32136C19.6738 7.37556 19.7837 7.45501 19.8762 7.55516Z" fill="#757575"/>
</svg>
