<svg width="20" height="20" viewBox="0 0 20 20" fill="none" xmlns="http://www.w3.org/2000/svg">
<g clip-path="url(#clip0_1105_527)">
<path d="M4.75 14.75H6V16H3.5V3.5H2.25V10.375V17.25H6V18.5H1V2.25H3.5V1H7.25C7.82292 1 8.37305 1.08789 8.90039 1.26367C9.42773 1.43945 9.91927 1.70312 10.375 2.05469C10.8242 1.70312 11.3125 1.43945 11.8398 1.26367C12.3672 1.08789 12.9206 1 13.5 1H17.25V2.25H19.75V10.248L18.5 9.68164V3.5H17.25V9.11523L16 8.53906V2.25H13.5C13.0378 2.25 12.5951 2.32812 12.1719 2.48438C11.7487 2.64062 11.3581 2.87174 11 3.17773V9.11523L9.75 9.68164V3.17773C9.39844 2.87826 9.01107 2.65039 8.58789 2.49414C8.16471 2.33789 7.71875 2.25651 7.25 2.25H4.75V14.75ZM18.5 17.2402L14.125 19.4375L9.75 17.2402C9.75 17.0059 9.75325 16.7585 9.75977 16.498C9.76628 16.2376 9.79232 15.974 9.83789 15.707C9.88346 15.4401 9.94857 15.1895 10.0332 14.9551C10.1178 14.7207 10.235 14.5026 10.3848 14.3008L8.5 13.4414V19.125H7.25V12.875L14.125 9.75L21 12.875L17.8652 14.3008L17.9434 14.4082C18.0801 14.61 18.1842 14.8281 18.2559 15.0625C18.3275 15.2969 18.3828 15.5345 18.4219 15.7754C18.4609 16.0163 18.4837 16.2637 18.4902 16.5176C18.4967 16.7715 18.5 17.0124 18.5 17.2402ZM14.125 11.1172L10.2676 12.875L14.125 14.6328L17.9824 12.875L14.125 11.1172ZM14.125 18.041L17.25 16.4688C17.2435 16.2995 17.2305 16.1465 17.2109 16.0098C17.1914 15.873 17.1556 15.7396 17.1035 15.6094C17.0514 15.4792 16.9993 15.3522 16.9473 15.2285C16.8952 15.1048 16.8203 14.9681 16.7227 14.8184L14.125 16L11.5273 14.8184C11.4297 14.9746 11.3516 15.1146 11.293 15.2383C11.2344 15.362 11.1823 15.4857 11.1367 15.6094C11.0911 15.7331 11.0618 15.8633 11.0488 16C11.0358 16.1367 11.0228 16.2962 11.0098 16.4785L14.125 18.041Z" fill="#757575"/>
</g>
<defs>
<clipPath id="clip0_1105_527">
<rect width="20" height="20" fill="white"/>
</clipPath>
</defs>
</svg>
