<svg
              width="29"
              height="36"
              viewBox="0 0 29 36"
              fill="none"
              xmlns="http://www.w3.org/2000/svg"
            >
              <g clip-path="url(#clip0_3861_7047)">
                <path
                  d="M7.29712 17.8706V27.1942H14.9822L13.3795 25.2498H8.89986V19.8151L7.29712 17.8706Z"
                  fill="#387ADF"
                />
                <path
                  d="M28.0287 32.3384L25.7288 29.5092V32.0564H3.29049V28.0217H4.89323V26.4661H3.29049V20.0009H4.89323V18.4453H3.29049V12.2231H4.89323V10.6675H3.29049V5.2328L16.0643 20.6425V17.9009L3.0581 2.19946C2.94601 2.06235 2.8028 1.96884 2.64674 1.93086C2.49068 1.89287 2.32882 1.91214 2.18182 1.98619C2.03481 2.06024 1.90931 2.18572 1.82132 2.34665C1.73333 2.50757 1.68683 2.69663 1.68776 2.88974V33.0286C1.68776 33.2865 1.77219 33.5338 1.92247 33.7161C2.07276 33.8984 2.27659 34.0009 2.48913 34.0009H27.4598C27.6189 34.002 27.7748 33.9456 27.9074 33.8388C28.0401 33.7321 28.1435 33.5798 28.2045 33.4015C28.2656 33.2231 28.2814 33.0267 28.2501 32.8374C28.2188 32.6481 28.1417 32.4743 28.0287 32.3384Z"
                  fill="#387ADF"
                />
                <path
                  d="M19.3178 30.1118H22.5233C22.9484 30.1118 23.356 29.907 23.6566 29.5423C23.9572 29.1777 24.126 28.6831 24.126 28.1674V9.40351L22.2829 5.29101C22.1403 4.99139 21.9345 4.74334 21.6866 4.57244C21.4386 4.40154 21.1576 4.31398 20.8725 4.31879C20.5809 4.3216 20.2955 4.42086 20.0469 4.60588C19.7984 4.7909 19.5962 5.05468 19.4621 5.36879L17.7151 9.42296V28.1674C17.7151 28.6831 17.8839 29.1777 18.1845 29.5423C18.4851 29.907 18.8928 30.1118 19.3178 30.1118ZM19.3178 9.88963L20.8725 6.22435L22.5233 9.89935V24.2785H19.3178V9.88963ZM19.3178 25.8632H22.5233V28.2355H19.3178V25.8632Z"
                  fill="#387ADF"
                />
              </g>
              <defs>
                <clipPath id="clip0_3861_7047">
                  <rect
                    width="28.8493"
                    height="35"
                    fill="white"
                    transform="translate(0.0847168 0.945312)"
                  />
                </clipPath>
              </defs>
            </svg>