<svg
              width="119"
              height="111"
              viewBox="0 0 119 111"
              fill="none"
              xmlns="http://www.w3.org/2000/svg"
            >
              <g clip-path="url(#clip0_3861_7052)">
                <path
                  d="M29.7247 53.4561V82.9009H61.3978L54.7924 76.7601H36.3302V59.5968L29.7247 53.4561Z"
                  fill="#99C1FF"
                  fill-opacity="0.1"
                />
                <path
                  d="M115.166 99.1423L105.687 90.2075V98.2519H13.211V85.5099H19.8164V80.5973H13.211V60.1794H19.8164V55.2668H13.211V35.6165H19.8164V30.7039H13.211V13.5405L65.8563 62.2058V53.5474L12.2532 3.961C11.7912 3.52799 11.201 3.23268 10.5578 3.11272C9.91463 2.99276 9.24758 3.05359 8.64171 3.28745C8.03585 3.52131 7.51862 3.9176 7.15598 4.42581C6.79334 4.93401 6.60171 5.53111 6.60552 6.14096V101.322C6.60552 102.137 6.95349 102.918 7.57287 103.493C8.19225 104.069 9.03231 104.393 9.90825 104.393H112.821C113.477 104.396 114.119 104.218 114.666 103.881C115.213 103.544 115.639 103.063 115.89 102.5C116.142 101.936 116.207 101.316 116.078 100.718C115.949 100.12 115.632 99.5718 115.166 99.1423Z"
                  fill="#99C1FF"
                  fill-opacity="0.1"
                />
                <path
                  d="M79.266 92.1097H92.4768C94.2287 92.1097 95.9088 91.4627 97.1476 90.3111C98.3864 89.1595 99.0823 87.5976 99.0823 85.969V26.7109L91.486 13.7233C90.8985 12.7771 90.0501 11.9937 89.0283 11.454C88.0065 10.9143 86.8483 10.6377 85.6732 10.6529C84.4715 10.6618 83.2952 10.9753 82.2709 11.5596C81.2466 12.1439 80.4132 12.9769 79.8605 13.9689L72.6605 26.7724V85.969C72.6605 87.5976 73.3565 89.1595 74.5952 90.3111C75.834 91.4627 77.5141 92.1097 79.266 92.1097ZM79.266 28.2461L85.6732 16.6709L92.4768 28.2768V73.6875H79.266V28.2461ZM79.266 78.6922H92.4768V86.1839H79.266V78.6922Z"
                  fill="#99C1FF"
                  fill-opacity="0.1"
                />
              </g>
              <defs>
                <clipPath id="clip0_3861_7052">
                  <rect width="118.898" height="110.533" fill="white" />
                </clipPath>
              </defs>
            </svg>