<svg width="30" height="30" viewBox="0 0 37 34" fill="none" xmlns="http://www.w3.org/2000/svg">
<path d="M15.8164 21.25L15.8164 17" stroke="#FF0000" stroke-width="2" stroke-linecap="round"/>
<path d="M21.8164 21.25L21.8164 17" stroke="#FF0000" stroke-width="2" stroke-linecap="round"/>
<path d="M5.31641 9.91675H32.3164H31.8164C29.9308 9.91675 28.988 9.91675 28.4022 10.5025C27.8164 11.0883 27.8164 12.0311 27.8164 13.9167V24.3334C27.8164 26.219 27.8164 27.1618 27.2306 27.7476C26.6448 28.3334 25.702 28.3334 23.8164 28.3334H13.8164C11.9308 28.3334 10.988 28.3334 10.4022 27.7476C9.81641 27.1618 9.81641 26.219 9.81641 24.3334V13.9167C9.81641 12.0311 9.81641 11.0883 9.23062 10.5025C8.64483 9.91675 7.70202 9.91675 5.81641 9.91675H5.31641Z" stroke="#FF0000" stroke-width="2" stroke-linecap="round"/>
<path d="M15.9186 4.775C16.0896 4.62439 16.4662 4.4913 16.9901 4.39637C17.5141 4.30145 18.156 4.25 18.8164 4.25C19.4768 4.25 20.1188 4.30145 20.6427 4.39637C21.1666 4.4913 21.5433 4.62439 21.7142 4.775" stroke="#FF0000" stroke-width="2" stroke-linecap="round"/>
</svg>
