<svg width="17" height="18" viewBox="0 0 17 18" fill="none" xmlns="http://www.w3.org/2000/svg">
<path fill-rule="evenodd" clip-rule="evenodd" d="M8.33333 17.3334C12.9358 17.3334 16.6667 13.6026 16.6667 9.00008C16.6667 4.39758 12.9358 0.666748 8.33333 0.666748C3.73083 0.666748 0 4.39758 0 9.00008C0 13.6026 3.73083 17.3334 8.33333 17.3334ZM4.245 14.2667L13.6 4.91175C14.5971 6.19439 15.0915 7.79699 14.9904 9.41846C14.8892 11.0399 14.1995 12.5687 13.0507 13.7174C11.9019 14.8662 10.3732 15.556 8.75171 15.6571C7.13024 15.7583 5.52764 15.2639 4.245 14.2667ZM3.06667 13.0884C2.06956 11.8058 1.57513 10.2032 1.67628 8.5817C1.77743 6.96023 2.46719 5.4315 3.61597 4.28272C4.76475 3.13393 6.29348 2.44418 7.91495 2.34303C9.53642 2.24188 11.139 2.73631 12.4217 3.73341L3.06667 13.0884Z" fill="#757575"/>
</svg>
