<svg width="24" height="24" viewBox="0 0 24 24" fill="none" xmlns="http://www.w3.org/2000/svg">
<path d="M10.667 17.25C10.667 16.9185 10.7987 16.6005 11.0331 16.3661C11.2675 16.1317 11.5855 16 11.917 16C12.2485 16 12.5665 16.1317 12.8009 16.3661C13.0353 16.6005 13.167 16.9185 13.167 17.25C13.167 17.5815 13.0353 17.8995 12.8009 18.1339C12.5665 18.3683 12.2485 18.5 11.917 18.5C11.5855 18.5 11.2675 18.3683 11.0331 18.1339C10.7987 17.8995 10.667 17.5815 10.667 17.25ZM10.667 12.25C10.667 11.9185 10.7987 11.6005 11.0331 11.3661C11.2675 11.1317 11.5855 11 11.917 11C12.2485 11 12.5665 11.1317 12.8009 11.3661C13.0353 11.6005 13.167 11.9185 13.167 12.25C13.167 12.5815 13.0353 12.8995 12.8009 13.1339C12.5665 13.3683 12.2485 13.5 11.917 13.5C11.5855 13.5 11.2675 13.3683 11.0331 13.1339C10.7987 12.8995 10.667 12.5815 10.667 12.25ZM10.667 7.25C10.667 6.91848 10.7987 6.60054 11.0331 6.36612C11.2675 6.1317 11.5855 6 11.917 6C12.2485 6 12.5665 6.1317 12.8009 6.36612C13.0353 6.60054 13.167 6.91848 13.167 7.25C13.167 7.58152 13.0353 7.89946 12.8009 8.13388C12.5665 8.3683 12.2485 8.5 11.917 8.5C11.5855 8.5 11.2675 8.3683 11.0331 8.13388C10.7987 7.89946 10.667 7.58152 10.667 7.25Z" fill="#B1B1B1"/>
</svg>
