<svg width="36" height="36" viewBox="0 0 36 36" fill="none" xmlns="http://www.w3.org/2000/svg">
<circle cx="18" cy="18" r="18" fill="white"/>
<path d="M25.875 20C25.3777 20 24.9008 19.8025 24.5492 19.4508C24.1975 19.0992 24 18.6223 24 18.125C24 17.6277 24.1975 17.1508 24.5492 16.7992C24.9008 16.4475 25.3777 16.25 25.875 16.25C26.3723 16.25 26.8492 16.4475 27.2008 16.7992C27.5525 17.1508 27.75 17.6277 27.75 18.125C27.75 18.6223 27.5525 19.0992 27.2008 19.4508C26.8492 19.8025 26.3723 20 25.875 20ZM18.375 20C17.8777 20 17.4008 19.8025 17.0492 19.4508C16.6975 19.0992 16.5 18.6223 16.5 18.125C16.5 17.6277 16.6975 17.1508 17.0492 16.7992C17.4008 16.4475 17.8777 16.25 18.375 16.25C18.8723 16.25 19.3492 16.4475 19.7008 16.7992C20.0525 17.1508 20.25 17.6277 20.25 18.125C20.25 18.6223 20.0525 19.0992 19.7008 19.4508C19.3492 19.8025 18.8723 20 18.375 20ZM10.875 20C10.3777 20 9.90081 19.8025 9.54917 19.4508C9.19754 19.0992 9 18.6223 9 18.125C9 17.6277 9.19754 17.1508 9.54917 16.7992C9.90081 16.4475 10.3777 16.25 10.875 16.25C11.3723 16.25 11.8492 16.4475 12.2008 16.7992C12.5525 17.1508 12.75 17.6277 12.75 18.125C12.75 18.6223 12.5525 19.0992 12.2008 19.4508C11.8492 19.8025 11.3723 20 10.875 20Z" fill="#757575"/>
</svg>
