<svg width="20" height="20" viewBox="0 0 20 20" fill="none" xmlns="http://www.w3.org/2000/svg">
<path d="M13.7687 5.78424L13.2373 6.2935L13.7687 5.78424L13.7458 5.76044C13.5199 5.52467 13.3133 5.30902 13.1245 5.14791C12.9204 4.97379 12.6747 4.80712 12.3568 4.7367C12.1075 4.68148 11.8491 4.68148 11.5998 4.7367C11.2819 4.80712 11.0362 4.97379 10.8321 5.14791C10.6433 5.30902 10.4366 5.52468 10.2107 5.76045L10.1879 5.78424L4.62409 11.59C4.61207 11.6025 4.59994 11.6151 4.58774 11.6278C4.43816 11.7833 4.27735 11.9504 4.1641 12.1579C4.05085 12.3654 3.99725 12.5911 3.9474 12.801C3.94333 12.8181 3.93929 12.8351 3.93524 12.852L3.45707 14.8478C3.45455 14.8583 3.45198 14.869 3.44937 14.8799C3.41301 15.0311 3.36845 15.2165 3.35437 15.3766C3.33847 15.5575 3.34038 15.9141 3.63244 16.2004C3.9245 16.4866 4.28109 16.4814 4.46162 16.4619C4.62143 16.4446 4.80584 16.3963 4.9563 16.3569C4.96711 16.3541 4.97775 16.3513 4.9882 16.3486L6.82837 15.8686C6.84593 15.864 6.86362 15.8594 6.88141 15.8548C7.09943 15.7984 7.33387 15.7377 7.5465 15.6129C7.75913 15.4881 7.92633 15.3129 8.08181 15.15C8.0945 15.1367 8.10712 15.1235 8.11968 15.1104L13.7687 9.21576L13.7903 9.19322C13.999 8.97544 14.1913 8.7748 14.3352 8.59216C14.4915 8.39361 14.6392 8.15806 14.7019 7.8588C14.7515 7.62217 14.7515 7.37783 14.7019 7.1412C14.6392 6.84194 14.4915 6.60639 14.3352 6.40784C14.1913 6.22519 13.999 6.02456 13.7903 5.80678L13.7687 5.78424Z" stroke="#CCCCCC" stroke-width="1.5"/>
<path d="M9.98242 6.25016L12.3783 4.5835L14.7741 7.0835L13.1769 9.5835L9.98242 6.25016Z" fill="#CCCCCC"/>
</svg>
