<svg width="36" height="36" viewBox="0 0 36 36" fill="none" xmlns="http://www.w3.org/2000/svg">
<path d="M15 11.25C15 11.0511 15.079 10.8603 15.2197 10.7197C15.3603 10.579 15.5511 10.5 15.75 10.5H21.75C21.9489 10.5 22.1397 10.579 22.2803 10.7197C22.421 10.8603 22.5 11.0511 22.5 11.25C22.5 11.4489 22.421 11.6397 22.2803 11.7803C22.1397 11.921 21.9489 12 21.75 12H15.75C15.5511 12 15.3603 11.921 15.2197 11.7803C15.079 11.6397 15 11.4489 15 11.25ZM15.75 13.5C15.5511 13.5 15.3603 13.579 15.2197 13.7197C15.079 13.8603 15 14.0511 15 14.25C15 14.4489 15.079 14.6397 15.2197 14.7803C15.3603 14.921 15.5511 15 15.75 15H21.75C21.9489 15 22.1397 14.921 22.2803 14.7803C22.421 14.6397 22.5 14.4489 22.5 14.25C22.5 14.0511 22.421 13.8603 22.2803 13.7197C22.1397 13.579 21.9489 13.5 21.75 13.5H15.75ZM15 21C15 20.8011 15.079 20.6103 15.2197 20.4697C15.3603 20.329 15.5511 20.25 15.75 20.25H21.75C21.9489 20.25 22.1397 20.329 22.2803 20.4697C22.421 20.6103 22.5 20.8011 22.5 21C22.5 21.1989 22.421 21.3897 22.2803 21.5303C22.1397 21.671 21.9489 21.75 21.75 21.75H15.75C15.5511 21.75 15.3603 21.671 15.2197 21.5303C15.079 21.3897 15 21.1989 15 21ZM15.75 23.25C15.5511 23.25 15.3603 23.329 15.2197 23.4697C15.079 23.6103 15 23.8011 15 24C15 24.1989 15.079 24.3897 15.2197 24.5303C15.3603 24.671 15.5511 24.75 15.75 24.75H21.75C21.9489 24.75 22.1397 24.671 22.2803 24.5303C22.421 24.3897 22.5 24.1989 22.5 24C22.5 23.8011 22.421 23.6103 22.2803 23.4697C22.1397 23.329 21.9489 23.25 21.75 23.25H15.75Z" fill="#FB8F2C"/>
<path fill-rule="evenodd" clip-rule="evenodd" d="M7.5 20.25C7.5 20.0511 7.57902 19.8603 7.71967 19.7197C7.86032 19.579 8.05109 19.5 8.25 19.5H12C12.1989 19.5 12.3897 19.579 12.5303 19.7197C12.671 19.8603 12.75 20.0511 12.75 20.25V24C12.75 24.1989 12.671 24.3897 12.5303 24.5303C12.3897 24.671 12.1989 24.75 12 24.75H8.25C8.05109 24.75 7.86032 24.671 7.71967 24.5303C7.57902 24.3897 7.5 24.1989 7.5 24V20.25ZM9 21V23.25H11.25V21H9Z" fill="#FB8F2C"/>
<path d="M13.2808 11.7803C13.4174 11.6389 13.493 11.4494 13.4913 11.2528C13.4896 11.0561 13.4107 10.868 13.2717 10.7289C13.1326 10.5899 12.9445 10.511 12.7478 10.5093C12.5512 10.5076 12.3618 10.5832 12.2203 10.7198L9.75055 13.1896L8.7808 12.2198C8.63935 12.0832 8.4499 12.0076 8.25325 12.0093C8.0566 12.011 7.86849 12.0899 7.72944 12.2289C7.59038 12.368 7.5115 12.5561 7.50979 12.7528C7.50809 12.9494 7.58368 13.1389 7.7203 13.2803L9.75055 15.3106L13.2808 11.7803Z" fill="#FB8F2C"/>
<path fill-rule="evenodd" clip-rule="evenodd" d="M7.5 4.5C6.70435 4.5 5.94129 4.81607 5.37868 5.37868C4.81607 5.94129 4.5 6.70435 4.5 7.5V28.5C4.5 29.2956 4.81607 30.0587 5.37868 30.6213C5.94129 31.1839 6.70435 31.5 7.5 31.5H22.5C23.2956 31.5 24.0587 31.1839 24.6213 30.6213C25.1839 30.0587 25.5 29.2956 25.5 28.5V7.5C25.5 6.70435 25.1839 5.94129 24.6213 5.37868C24.0587 4.81607 23.2956 4.5 22.5 4.5H7.5ZM6 7.5C6 7.10218 6.15804 6.72064 6.43934 6.43934C6.72064 6.15804 7.10218 6 7.5 6H22.5C22.8978 6 23.2794 6.15804 23.5607 6.43934C23.842 6.72064 24 7.10218 24 7.5V28.5C24 28.8978 23.842 29.2794 23.5607 29.5607C23.2794 29.842 22.8978 30 22.5 30H7.5C7.10218 30 6.72064 29.842 6.43934 29.5607C6.15804 29.2794 6 28.8978 6 28.5V7.5ZM27 12C27 11.4033 27.2371 10.831 27.659 10.409C28.081 9.98705 28.6533 9.75 29.25 9.75C29.8467 9.75 30.419 9.98705 30.841 10.409C31.2629 10.831 31.5 11.4033 31.5 12V27.2273L29.25 30.6023L27 27.2273V12ZM29.25 11.25C29.0511 11.25 28.8603 11.329 28.7197 11.4697C28.579 11.6103 28.5 11.8011 28.5 12V13.5H30V12C30 11.8011 29.921 11.6103 29.7803 11.4697C29.6397 11.329 29.4489 11.25 29.25 11.25ZM29.25 27.8977L28.5 26.7727V15H30V26.7727L29.25 27.8977Z" fill="#FB8F2C"/>
</svg>
