<svg width="27" height="27" viewBox="0 0 27 27" fill="none" xmlns="http://www.w3.org/2000/svg">
<circle cx="13.4465" cy="13.445" r="4.48161" fill="#006FEE"/>
<path d="M26.8896 13.4448C26.8896 10.4513 25.8906 7.5433 24.0508 5.18182C22.211 2.82034 19.6357 1.14042 16.733 0.40829C13.8303 -0.323842 10.7663 -0.066302 8.02662 1.14009C5.2869 2.34649 3.02816 4.43273 1.60836 7.06819C0.188564 9.70365 -0.311068 12.7376 0.188644 15.6891C0.688356 18.6407 2.15883 21.3411 4.36702 23.3623C6.57521 25.3836 9.39481 26.61 12.379 26.8473C15.3631 27.0847 18.3411 26.3193 20.841 24.6725L17.8871 20.1883C16.3856 21.1774 14.597 21.6371 12.8046 21.4946C11.0123 21.3521 9.31882 20.6154 7.99254 19.4014C6.66626 18.1875 5.78307 16.5656 5.48294 14.7928C5.1828 13.02 5.48289 11.1978 6.33564 9.61491C7.1884 8.03201 8.54504 6.77898 10.1906 6.0544C11.8361 5.32981 13.6764 5.17513 15.4198 5.61486C17.1631 6.05459 18.7099 7.06358 19.8149 8.48193C20.92 9.90027 21.52 11.6468 21.52 13.4448H26.8896Z" fill="#006FEE"/>
</svg>
