<svg width="135" height="27" viewBox="0 0 135 27" fill="none" xmlns="http://www.w3.org/2000/svg">
<circle cx="13.4465" cy="13.445" r="4.48161" fill="#006FEE"/>
<path d="M26.8896 13.4448C26.8896 10.4513 25.8906 7.5433 24.0508 5.18182C22.211 2.82034 19.6357 1.14042 16.733 0.40829C13.8303 -0.323842 10.7663 -0.066302 8.02662 1.14009C5.2869 2.34649 3.02816 4.43273 1.60836 7.06819C0.188564 9.70365 -0.311068 12.7376 0.188644 15.6891C0.688356 18.6407 2.15883 21.3411 4.36702 23.3623C6.57521 25.3836 9.39481 26.61 12.379 26.8473C15.3631 27.0847 18.3411 26.3193 20.841 24.6725L17.8871 20.1883C16.3856 21.1774 14.597 21.6371 12.8046 21.4946C11.0123 21.3521 9.31882 20.6154 7.99254 19.4014C6.66626 18.1875 5.78307 16.5656 5.48294 14.7928C5.1828 13.02 5.48289 11.1978 6.33564 9.61491C7.1884 8.03201 8.54504 6.77898 10.1906 6.0544C11.8361 5.32981 13.6764 5.17513 15.4198 5.61486C17.1631 6.05459 18.7099 7.06358 19.8149 8.48193C20.92 9.90027 21.52 11.6468 21.52 13.4448H26.8896Z" fill="#006FEE"/>
<path d="M47.4432 11.5795H44.6023C44.5644 11.2879 44.4867 11.0246 44.3693 10.7898C44.2519 10.5549 44.0966 10.3542 43.9034 10.1875C43.7102 10.0208 43.4811 9.89394 43.2159 9.80682C42.9545 9.71591 42.6648 9.67045 42.3466 9.67045C41.7822 9.67045 41.2955 9.80871 40.8864 10.0852C40.4811 10.3617 40.1686 10.7614 39.9489 11.2841C39.733 11.8068 39.625 12.4394 39.625 13.1818C39.625 13.9545 39.7348 14.6023 39.9545 15.125C40.178 15.6439 40.4905 16.036 40.892 16.3011C41.2973 16.5625 41.7765 16.6932 42.3295 16.6932C42.6402 16.6932 42.9223 16.6534 43.1761 16.5739C43.4337 16.4943 43.6591 16.3788 43.8523 16.2273C44.0492 16.072 44.2102 15.8845 44.3352 15.6648C44.464 15.4413 44.553 15.1894 44.6023 14.9091L47.4432 14.9261C47.3939 15.4413 47.2443 15.9489 46.9943 16.4489C46.7481 16.9489 46.4091 17.4053 45.9773 17.8182C45.5455 18.2273 45.0189 18.553 44.3977 18.7955C43.7803 19.0379 43.072 19.1591 42.2727 19.1591C41.2197 19.1591 40.2765 18.928 39.4432 18.4659C38.6136 18 37.9583 17.322 37.4773 16.4318C36.9962 15.5417 36.7557 14.4583 36.7557 13.1818C36.7557 11.9015 37 10.8163 37.4886 9.92614C37.9773 9.03598 38.6383 8.35985 39.4716 7.89773C40.3049 7.43561 41.2386 7.20455 42.2727 7.20455C42.9773 7.20455 43.6288 7.30303 44.2273 7.5C44.8258 7.69318 45.3523 7.97727 45.8068 8.35227C46.2614 8.72348 46.6307 9.17992 46.9148 9.72159C47.1989 10.2633 47.375 10.8826 47.4432 11.5795ZM51.831 7.36364V19H49.0526V7.36364H51.831ZM56.2869 19.1761C55.7339 19.1761 55.2358 19.0777 54.7926 18.8807C54.3532 18.6799 54.0047 18.3845 53.7472 17.9943C53.4934 17.6042 53.3665 17.1231 53.3665 16.5511C53.3665 16.0587 53.4574 15.6515 53.6392 15.3295C53.821 15.0076 54.0691 14.75 54.3835 14.5568C54.6979 14.3636 55.0521 14.2178 55.446 14.1193C55.8438 14.017 56.2547 13.9432 56.679 13.8977C57.1903 13.8447 57.6051 13.7973 57.9233 13.7557C58.2415 13.7102 58.4725 13.642 58.6165 13.5511C58.7642 13.4564 58.8381 13.3106 58.8381 13.1136V13.0795C58.8381 12.6515 58.7112 12.3201 58.4574 12.0852C58.2036 11.8504 57.8381 11.733 57.3608 11.733C56.857 11.733 56.4574 11.8428 56.1619 12.0625C55.8703 12.2822 55.6733 12.5417 55.571 12.8409L53.6506 12.5682C53.8021 12.0379 54.0521 11.5947 54.4006 11.2386C54.7491 10.8788 55.1752 10.6098 55.679 10.4318C56.1828 10.25 56.7396 10.1591 57.3494 10.1591C57.7699 10.1591 58.1884 10.2083 58.6051 10.3068C59.0218 10.4053 59.4025 10.5682 59.7472 10.7955C60.0919 11.0189 60.3684 11.3239 60.5767 11.7102C60.7888 12.0966 60.8949 12.5795 60.8949 13.1591V19H58.9176V17.8011H58.8494C58.7244 18.0436 58.5483 18.2708 58.321 18.483C58.0975 18.6913 57.8153 18.8598 57.4744 18.9886C57.1373 19.1136 56.7415 19.1761 56.2869 19.1761ZM56.821 17.6648C57.2339 17.6648 57.5919 17.5833 57.8949 17.4205C58.1979 17.2538 58.4309 17.0341 58.5938 16.7614C58.7604 16.4886 58.8438 16.1913 58.8438 15.8693V14.8409C58.7794 14.8939 58.6695 14.9432 58.5142 14.9886C58.3627 15.0341 58.1922 15.0739 58.0028 15.108C57.8134 15.142 57.6259 15.1723 57.4403 15.1989C57.2547 15.2254 57.0938 15.2481 56.9574 15.267C56.6506 15.3087 56.3759 15.3769 56.1335 15.4716C55.8911 15.5663 55.6998 15.6989 55.5597 15.8693C55.4195 16.036 55.3494 16.2519 55.3494 16.517C55.3494 16.8958 55.4877 17.1818 55.7642 17.375C56.0407 17.5682 56.393 17.6648 56.821 17.6648ZM69.8608 12.5795L67.9858 12.7841C67.9328 12.5947 67.84 12.4167 67.7074 12.25C67.5786 12.0833 67.4044 11.9489 67.1847 11.8466C66.965 11.7443 66.696 11.6932 66.3778 11.6932C65.9498 11.6932 65.59 11.786 65.2983 11.9716C65.0104 12.1572 64.8684 12.3977 64.8722 12.6932C64.8684 12.947 64.9612 13.1534 65.1506 13.3125C65.3438 13.4716 65.6619 13.6023 66.1051 13.7045L67.5938 14.0227C68.4195 14.2008 69.0331 14.483 69.4347 14.8693C69.84 15.2557 70.0445 15.7614 70.0483 16.3864C70.0445 16.9356 69.8835 17.4205 69.5653 17.8409C69.2509 18.2576 68.8134 18.5833 68.2528 18.8182C67.6922 19.053 67.0483 19.1705 66.321 19.1705C65.2528 19.1705 64.393 18.947 63.7415 18.5C63.09 18.0492 62.7017 17.4223 62.5767 16.6193L64.5824 16.4261C64.6733 16.8201 64.8665 17.1174 65.1619 17.3182C65.4574 17.5189 65.8419 17.6193 66.3153 17.6193C66.804 17.6193 67.196 17.5189 67.4915 17.3182C67.7907 17.1174 67.9403 16.8693 67.9403 16.5739C67.9403 16.3239 67.8438 16.1174 67.6506 15.9545C67.4612 15.7917 67.1657 15.6667 66.7642 15.5795L65.2756 15.267C64.4384 15.0928 63.8191 14.7992 63.4176 14.3864C63.0161 13.9697 62.8172 13.4432 62.821 12.8068C62.8172 12.2689 62.9631 11.803 63.2585 11.4091C63.5578 11.0114 63.9725 10.7045 64.5028 10.4886C65.0369 10.2689 65.6525 10.1591 66.3494 10.1591C67.3722 10.1591 68.1771 10.3769 68.7642 10.8125C69.3551 11.2481 69.7206 11.8371 69.8608 12.5795ZM78.642 12.5795L76.767 12.7841C76.714 12.5947 76.6212 12.4167 76.4886 12.25C76.3598 12.0833 76.1856 11.9489 75.9659 11.8466C75.7462 11.7443 75.4773 11.6932 75.1591 11.6932C74.7311 11.6932 74.3712 11.786 74.0795 11.9716C73.7917 12.1572 73.6496 12.3977 73.6534 12.6932C73.6496 12.947 73.7424 13.1534 73.9318 13.3125C74.125 13.4716 74.4432 13.6023 74.8864 13.7045L76.375 14.0227C77.2008 14.2008 77.8144 14.483 78.2159 14.8693C78.6212 15.2557 78.8258 15.7614 78.8295 16.3864C78.8258 16.9356 78.6648 17.4205 78.3466 17.8409C78.0322 18.2576 77.5947 18.5833 77.0341 18.8182C76.4735 19.053 75.8295 19.1705 75.1023 19.1705C74.0341 19.1705 73.1742 18.947 72.5227 18.5C71.8712 18.0492 71.483 17.4223 71.358 16.6193L73.3636 16.4261C73.4545 16.8201 73.6477 17.1174 73.9432 17.3182C74.2386 17.5189 74.6231 17.6193 75.0966 17.6193C75.5852 17.6193 75.9773 17.5189 76.2727 17.3182C76.572 17.1174 76.7216 16.8693 76.7216 16.5739C76.7216 16.3239 76.625 16.1174 76.4318 15.9545C76.2424 15.7917 75.947 15.6667 75.5455 15.5795L74.0568 15.267C73.2197 15.0928 72.6004 14.7992 72.1989 14.3864C71.7973 13.9697 71.5985 13.4432 71.6023 12.8068C71.5985 12.2689 71.7443 11.803 72.0398 11.4091C72.339 11.0114 72.7538 10.7045 73.2841 10.4886C73.8182 10.2689 74.4337 10.1591 75.1307 10.1591C76.1534 10.1591 76.9583 10.3769 77.5455 10.8125C78.1364 11.2481 78.5019 11.8371 78.642 12.5795ZM86.9403 10.5625C86.8873 10.0663 86.6638 9.67992 86.2699 9.40341C85.8797 9.12689 85.3722 8.98864 84.7472 8.98864C84.3078 8.98864 83.9309 9.05492 83.6165 9.1875C83.3021 9.32008 83.0616 9.5 82.8949 9.72727C82.7282 9.95455 82.643 10.214 82.6392 10.5057C82.6392 10.7481 82.6941 10.9583 82.804 11.1364C82.9176 11.3144 83.071 11.4659 83.2642 11.5909C83.4574 11.7121 83.6714 11.8144 83.9062 11.8977C84.1411 11.9811 84.3778 12.0511 84.6165 12.108L85.7074 12.3807C86.1468 12.483 86.5691 12.6212 86.9744 12.7955C87.3835 12.9697 87.7491 13.1894 88.071 13.4545C88.3968 13.7197 88.6544 14.0398 88.8438 14.4148C89.0331 14.7898 89.1278 15.2292 89.1278 15.733C89.1278 16.4148 88.9536 17.0152 88.6051 17.5341C88.2566 18.0492 87.7528 18.4527 87.0938 18.7443C86.4384 19.0322 85.6449 19.1761 84.7131 19.1761C83.8078 19.1761 83.0218 19.036 82.3551 18.7557C81.6922 18.4754 81.1733 18.0663 80.7983 17.5284C80.4271 16.9905 80.2263 16.3352 80.196 15.5625H82.2699C82.3002 15.9678 82.4252 16.3049 82.6449 16.5739C82.8646 16.8428 83.1506 17.0436 83.5028 17.1761C83.8589 17.3087 84.2566 17.375 84.696 17.375C85.1544 17.375 85.5559 17.3068 85.9006 17.1705C86.2491 17.0303 86.5218 16.8371 86.7188 16.5909C86.9157 16.3409 87.0161 16.0492 87.0199 15.7159C87.0161 15.4129 86.9271 15.1629 86.7528 14.9659C86.5786 14.7652 86.3343 14.5985 86.0199 14.4659C85.7093 14.3295 85.3456 14.2083 84.929 14.1023L83.6051 13.7614C82.6468 13.5152 81.8892 13.142 81.3324 12.642C80.7794 12.1383 80.5028 11.4697 80.5028 10.6364C80.5028 9.95076 80.6884 9.35038 81.0597 8.83523C81.4347 8.32008 81.9441 7.92045 82.5881 7.63636C83.232 7.34848 83.9612 7.20455 84.7756 7.20455C85.6013 7.20455 86.3248 7.34848 86.946 7.63636C87.571 7.92045 88.0616 8.31629 88.4176 8.82386C88.7737 9.32765 88.9574 9.9072 88.9688 10.5625H86.9403ZM90.9162 22.2727V10.2727H92.9389V11.7159H93.0582C93.1643 11.5038 93.3139 11.2784 93.5071 11.0398C93.7003 10.7973 93.9616 10.5909 94.2912 10.4205C94.6207 10.2462 95.0412 10.1591 95.5526 10.1591C96.2268 10.1591 96.8348 10.3314 97.3764 10.6761C97.9219 11.017 98.3537 11.5227 98.6719 12.1932C98.9938 12.8598 99.1548 13.678 99.1548 14.6477C99.1548 15.6061 98.9976 16.4205 98.6832 17.0909C98.3688 17.7614 97.9408 18.2727 97.3991 18.625C96.8575 18.9773 96.2438 19.1534 95.5582 19.1534C95.0582 19.1534 94.6435 19.0701 94.3139 18.9034C93.9844 18.7367 93.7192 18.536 93.5185 18.3011C93.3215 18.0625 93.1681 17.8371 93.0582 17.625H92.973V22.2727H90.9162ZM92.9332 14.6364C92.9332 15.2008 93.0128 15.6951 93.1719 16.1193C93.3348 16.5436 93.5677 16.875 93.8707 17.1136C94.1776 17.3485 94.5488 17.4659 94.9844 17.4659C95.4389 17.4659 95.8196 17.3447 96.1264 17.1023C96.4332 16.8561 96.6643 16.5208 96.8196 16.0966C96.9787 15.6686 97.0582 15.1818 97.0582 14.6364C97.0582 14.0947 96.9806 13.6136 96.8253 13.1932C96.67 12.7727 96.4389 12.4432 96.1321 12.2045C95.8253 11.9659 95.4427 11.8466 94.9844 11.8466C94.545 11.8466 94.1719 11.9621 93.8651 12.1932C93.5582 12.4242 93.3253 12.7481 93.1662 13.1648C93.0109 13.5814 92.9332 14.072 92.9332 14.6364ZM102.973 13.8864V19H100.916V7.36364H102.928V11.7557H103.03C103.234 11.2633 103.551 10.875 103.979 10.5909C104.411 10.303 104.96 10.1591 105.626 10.1591C106.232 10.1591 106.761 10.286 107.212 10.5398C107.662 10.7936 108.011 11.1648 108.257 11.6534C108.507 12.142 108.632 12.7386 108.632 13.4432V19H106.575V13.7614C106.575 13.1742 106.424 12.7178 106.121 12.392C105.821 12.0625 105.401 11.8977 104.859 11.8977C104.496 11.8977 104.17 11.9773 103.882 12.1364C103.598 12.2917 103.375 12.517 103.212 12.8125C103.053 13.108 102.973 13.4659 102.973 13.8864ZM114.592 19.1705C113.717 19.1705 112.962 18.9886 112.325 18.625C111.693 18.2576 111.206 17.7386 110.865 17.0682C110.524 16.3939 110.354 15.6004 110.354 14.6875C110.354 13.7898 110.524 13.0019 110.865 12.3239C111.21 11.642 111.691 11.1117 112.308 10.733C112.926 10.3504 113.651 10.1591 114.484 10.1591C115.022 10.1591 115.53 10.2462 116.007 10.4205C116.488 10.5909 116.912 10.8561 117.28 11.2159C117.651 11.5758 117.943 12.0341 118.155 12.5909C118.367 13.1439 118.473 13.803 118.473 14.5682V15.1989H111.32V13.8125H116.501C116.498 13.4186 116.412 13.0682 116.246 12.7614C116.079 12.4508 115.846 12.2064 115.547 12.0284C115.251 11.8504 114.907 11.7614 114.513 11.7614C114.092 11.7614 113.723 11.8636 113.405 12.0682C113.087 12.2689 112.839 12.5341 112.661 12.8636C112.486 13.1894 112.397 13.5473 112.393 13.9375V15.1477C112.393 15.6553 112.486 16.0909 112.672 16.4545C112.857 16.8144 113.117 17.0909 113.45 17.2841C113.784 17.4735 114.174 17.5682 114.621 17.5682C114.92 17.5682 115.191 17.5265 115.433 17.4432C115.676 17.3561 115.886 17.2292 116.064 17.0625C116.242 16.8958 116.376 16.6894 116.467 16.4432L118.388 16.6591C118.267 17.1667 118.036 17.6098 117.695 17.9886C117.357 18.3636 116.926 18.6553 116.399 18.8636C115.873 19.0682 115.27 19.1705 114.592 19.1705ZM120.213 19V10.2727H122.207V11.7273H122.298C122.457 11.2235 122.73 10.8352 123.116 10.5625C123.507 10.286 123.952 10.1477 124.452 10.1477C124.565 10.1477 124.692 10.1534 124.832 10.1648C124.976 10.1723 125.096 10.1856 125.19 10.2045V12.0966C125.103 12.0663 124.965 12.0398 124.776 12.017C124.59 11.9905 124.41 11.9773 124.236 11.9773C123.861 11.9773 123.524 12.0587 123.224 12.2216C122.929 12.3807 122.696 12.6023 122.526 12.8864C122.355 13.1705 122.27 13.4981 122.27 13.8693V19H120.213ZM130.061 19.1705C129.186 19.1705 128.43 18.9886 127.794 18.625C127.161 18.2576 126.675 17.7386 126.334 17.0682C125.993 16.3939 125.822 15.6004 125.822 14.6875C125.822 13.7898 125.993 13.0019 126.334 12.3239C126.679 11.642 127.16 11.1117 127.777 10.733C128.394 10.3504 129.12 10.1591 129.953 10.1591C130.491 10.1591 130.999 10.2462 131.476 10.4205C131.957 10.5909 132.381 10.8561 132.749 11.2159C133.12 11.5758 133.411 12.0341 133.624 12.5909C133.836 13.1439 133.942 13.803 133.942 14.5682V15.1989H126.788V13.8125H131.97C131.966 13.4186 131.881 13.0682 131.714 12.7614C131.548 12.4508 131.315 12.2064 131.016 12.0284C130.72 11.8504 130.375 11.7614 129.982 11.7614C129.561 11.7614 129.192 11.8636 128.874 12.0682C128.555 12.2689 128.307 12.5341 128.129 12.8636C127.955 13.1894 127.866 13.5473 127.862 13.9375V15.1477C127.862 15.6553 127.955 16.0909 128.141 16.4545C128.326 16.8144 128.586 17.0909 128.919 17.2841C129.252 17.4735 129.643 17.5682 130.089 17.5682C130.389 17.5682 130.66 17.5265 130.902 17.4432C131.144 17.3561 131.355 17.2292 131.533 17.0625C131.711 16.8958 131.845 16.6894 131.936 16.4432L133.857 16.6591C133.735 17.1667 133.504 17.6098 133.163 17.9886C132.826 18.3636 132.394 18.6553 131.868 18.8636C131.341 19.0682 130.739 19.1705 130.061 19.1705Z" fill="#232323"/>
</svg>
