<svg width="20" height="20" viewBox="0 0 20 20" fill="none" xmlns="http://www.w3.org/2000/svg">
<g clip-path="url(#clip0_1105_543)">
<path d="M5.4 6.52941C5.4 6.06138 5.57911 5.61252 5.89792 5.28158C6.21673 4.95063 6.64913 4.76471 7.1 4.76471C7.55087 4.76471 7.98327 4.95063 8.30208 5.28158C8.62089 5.61252 8.8 6.06138 8.8 6.52941C8.8 6.99744 8.62089 7.4463 8.30208 7.77725C7.98327 8.10819 7.55087 8.29412 7.1 8.29412C6.64913 8.29412 6.21673 8.10819 5.89792 7.77725C5.57911 7.4463 5.4 6.99744 5.4 6.52941ZM7.1 3C6.19826 3 5.33346 3.37185 4.69584 4.03374C4.05821 4.69563 3.7 5.59335 3.7 6.52941C3.7 7.46547 4.05821 8.36319 4.69584 9.02508C5.33346 9.68698 6.19826 10.0588 7.1 10.0588C8.00174 10.0588 8.86654 9.68698 9.50416 9.02508C10.1418 8.36319 10.5 7.46547 10.5 6.52941C10.5 5.59335 10.1418 4.69563 9.50416 4.03374C8.86654 3.37185 8.00174 3 7.1 3ZM13.9 7.41176C13.9 7.17775 13.9896 6.95332 14.149 6.78785C14.3084 6.62237 14.5246 6.52941 14.75 6.52941C14.9754 6.52941 15.1916 6.62237 15.351 6.78785C15.5104 6.95332 15.6 7.17775 15.6 7.41176C15.6 7.64578 15.5104 7.87021 15.351 8.03568C15.1916 8.20116 14.9754 8.29412 14.75 8.29412C14.5246 8.29412 14.3084 8.20116 14.149 8.03568C13.9896 7.87021 13.9 7.64578 13.9 7.41176ZM14.75 4.76471C14.0737 4.76471 13.4251 5.04359 12.9469 5.54001C12.4687 6.03643 12.2 6.70972 12.2 7.41176C12.2 8.11381 12.4687 8.7871 12.9469 9.28352C13.4251 9.77994 14.0737 10.0588 14.75 10.0588C15.4263 10.0588 16.0749 9.77994 16.5531 9.28352C17.0313 8.7871 17.3 8.11381 17.3 7.41176C17.3 6.70972 17.0313 6.03643 16.5531 5.54001C16.0749 5.04359 15.4263 4.76471 14.75 4.76471ZM2 14.0294C2 12.8118 2.952 11.8235 4.125 11.8235H10.075C11.248 11.8235 12.2 12.8118 12.2 14.0294V14.1141C12.1988 14.1784 12.1943 14.2427 12.1864 14.3065C12.1707 14.461 12.1451 14.6143 12.1099 14.7653C11.9951 15.2533 11.7901 15.7136 11.5064 16.1206C10.7856 17.1494 9.4426 18 7.1 18C4.7574 18 3.4144 17.1494 2.6936 16.1206C2.3222 15.5856 2.08818 14.9613 2.0136 14.3065L2 14.1124V14.0294ZM3.7 14.0753L3.7034 14.1229C3.70793 14.1735 3.72097 14.2494 3.7425 14.3506C3.7884 14.55 3.8819 14.8165 4.0689 15.0829C4.4089 15.57 5.1909 16.2353 7.1 16.2353C9.0091 16.2353 9.7894 15.57 10.1311 15.0829C10.3355 14.7862 10.4625 14.4397 10.5 14.0771V14.0294C10.5 13.9124 10.4552 13.8002 10.3755 13.7175C10.2958 13.6347 10.1877 13.5882 10.075 13.5882H4.125C4.01228 13.5882 3.90418 13.6347 3.82448 13.7175C3.74478 13.8002 3.7 13.9124 3.7 14.0294V14.0753ZM14.7483 17.1176C14.1465 17.1153 13.6178 17.0565 13.1622 16.9412C13.4719 16.4312 13.6923 15.8684 13.8133 15.2788C14.0762 15.3259 14.3879 15.3506 14.7483 15.3529C16.2613 15.3529 16.8359 14.8729 17.0603 14.5818C17.1833 14.4195 17.2651 14.2277 17.2983 14.0241V14.0153C17.2948 13.9008 17.2484 13.7921 17.1691 13.7124C17.0898 13.6327 16.9837 13.5882 16.8733 13.5882H13.8762C13.809 12.9568 13.5961 12.3515 13.2557 11.8235H16.875C18.048 11.8235 19 12.8118 19 14.0294V14.0594C18.9985 14.1143 18.9945 14.169 18.9881 14.2235C18.9209 14.7576 18.7139 15.2624 18.3897 15.6829C17.7624 16.4947 16.6387 17.1176 14.75 17.1176" fill="#757575"/>
</g>
<defs>
<clipPath id="clip0_1105_543">
<rect width="20" height="20" fill="white"/>
</clipPath>
</defs>
</svg>
