<svg width="24" height="24" viewBox="0 0 24 24" fill="none" xmlns="http://www.w3.org/2000/svg">
<path d="M11.5 11.792L14.5 14.792C14.5933 14.8853 14.6433 15.0003 14.65 15.137C14.6567 15.2737 14.6067 15.3947 14.5 15.5C14.3933 15.6053 14.2753 15.6587 14.146 15.66C14.0167 15.6613 13.8987 15.608 13.792 15.5L10.742 12.45C10.6553 12.3633 10.5933 12.272 10.556 12.176C10.5187 12.08 10.5 11.981 10.5 11.879V7.5C10.5 7.358 10.548 7.23933 10.644 7.144C10.74 7.04867 10.859 7.00067 11.001 7C11.143 6.99933 11.2617 7.04733 11.357 7.144C11.4523 7.24067 11.5 7.35933 11.5 7.5V11.792ZM11.003 20C9.89234 20 8.85134 19.7927 7.88 19.378C6.90867 18.9633 6.06034 18.3933 5.335 17.668C4.60967 16.9427 4.039 16.0947 3.623 15.124C3.207 14.1533 2.99933 13.113 3 12.003C3.00067 10.893 3.208 9.852 3.622 8.88C4.036 7.908 4.60634 7.05933 5.333 6.334C6.05967 5.608 6.908 5.03767 7.878 4.623C8.848 4.20833 9.88867 4.00067 11 4C11.1833 4 11.3543 4.00433 11.513 4.013C11.6717 4.02167 11.8423 4.04233 12.025 4.075C12.1677 4.08833 12.2867 4.14167 12.382 4.235C12.4773 4.32833 12.525 4.444 12.525 4.582C12.525 4.72 12.4773 4.84 12.382 4.942C12.2867 5.044 12.1677 5.08833 12.025 5.075C11.8543 5.049 11.6877 5.03 11.525 5.018C11.3637 5.006 11.1887 5 11 5C9.05934 5 7.40734 5.68133 6.044 7.044C4.68067 8.40667 3.99933 10.0587 4 12C4.00067 13.9413 4.682 15.5933 6.044 16.956C7.406 18.3187 9.058 19 11 19C12.942 19 14.594 18.3187 15.956 16.956C17.318 15.5933 17.9993 13.9413 18 12C18 11.858 18.048 11.7393 18.144 11.644C18.24 11.5487 18.359 11.5007 18.501 11.5C18.643 11.4993 18.7617 11.5473 18.857 11.644C18.9523 11.7407 19 11.8593 19 12C19 13.1113 18.7927 14.152 18.378 15.122C17.9633 16.092 17.3933 16.9403 16.668 17.667C15.942 18.3923 15.094 18.9623 14.124 19.377C13.154 19.7923 12.1137 20 11.003 20Z" fill="#387ADF"/>
<path d="M19.7419 5.24194C19.7419 5.17777 19.7164 5.11623 19.6711 5.07086C19.6257 5.02549 19.5642 5 19.5 5C19.4358 5 19.3743 5.02549 19.3289 5.07086C19.2836 5.11623 19.2581 5.17777 19.2581 5.24194V7.25806H17.2419C17.1778 7.25806 17.1162 7.28355 17.0709 7.32893C17.0255 7.3743 17 7.43583 17 7.5C17 7.56417 17.0255 7.6257 17.0709 7.67107C17.1162 7.71645 17.1778 7.74194 17.2419 7.74194H19.2581V9.75806C19.2581 9.82223 19.2836 9.88377 19.3289 9.92914C19.3743 9.97451 19.4358 10 19.5 10C19.5642 10 19.6257 9.97451 19.6711 9.92914C19.7164 9.88377 19.7419 9.82223 19.7419 9.75806V7.74194H21.7581C21.8222 7.74194 21.8838 7.71645 21.9291 7.67107C21.9745 7.6257 22 7.56417 22 7.5C22 7.43583 21.9745 7.3743 21.9291 7.32893C21.8838 7.28355 21.8222 7.25806 21.7581 7.25806H19.7419V5.24194Z" fill="#FF0000"/>
<path d="M13.42 6.213C13.4527 5.78367 13.6183 5.44767 13.917 5.205C14.2157 4.96233 14.603 4.841 15.079 4.841C15.3963 4.841 15.6693 4.89933 15.898 5.016C16.1313 5.128 16.3063 5.282 16.423 5.478C16.5443 5.674 16.605 5.89567 16.605 6.143C16.605 6.43233 16.521 6.682 16.353 6.892C16.1897 7.102 15.975 7.23733 15.709 7.298V7.333C16.0123 7.40767 16.2527 7.55467 16.43 7.774C16.6073 7.99333 16.696 8.28033 16.696 8.635C16.696 8.901 16.6353 9.14133 16.514 9.356C16.3927 9.566 16.2107 9.73167 15.968 9.853C15.7253 9.97433 15.4337 10.035 15.093 10.035C14.5983 10.035 14.1923 9.90667 13.875 9.65C13.5577 9.38867 13.3803 9.02 13.343 8.544H13.959C13.9917 8.824 14.106 9.05267 14.302 9.23C14.498 9.40733 14.7593 9.496 15.086 9.496C15.4127 9.496 15.66 9.412 15.828 9.244C16.0007 9.07133 16.087 8.84967 16.087 8.579C16.087 8.229 15.9703 7.977 15.737 7.823C15.5037 7.669 15.1513 7.592 14.68 7.592H14.519V7.06H14.687C15.1163 7.05533 15.4407 6.98533 15.66 6.85C15.8793 6.71 15.989 6.49533 15.989 6.206C15.989 5.95867 15.9073 5.76033 15.744 5.611C15.5853 5.46167 15.3567 5.387 15.058 5.387C14.7687 5.387 14.5353 5.46167 14.358 5.611C14.1807 5.76033 14.0757 5.961 14.043 6.213H13.42Z" fill="#FF0000"/>
</svg>
