<svg width="38" height="38" viewBox="0 0 38 38" fill="none" xmlns="http://www.w3.org/2000/svg">
<path fill-rule="evenodd" clip-rule="evenodd" d="M37.75 19C37.75 29.3553 29.3553 37.75 19 37.75C8.64466 37.75 0.25 29.3553 0.25 19C0.25 8.64466 8.64466 0.25 19 0.25C29.3553 0.25 37.75 8.64466 37.75 19ZM19 30.4167C18.4477 30.4167 18 29.969 18 29.4167V20H8.58333C8.03105 20 7.58333 19.5523 7.58333 19C7.58333 18.4477 8.03105 18 8.58333 18H18V8.58334C18 8.03105 18.4477 7.58334 19 7.58334C19.5523 7.58334 20 8.03105 20 8.58334V18H29.4167C29.9689 18 30.4167 18.4477 30.4167 19C30.4167 19.5523 29.9689 20 29.4167 20H20V29.4167C20 29.969 19.5523 30.4167 19 30.4167Z" fill="#387ADF"/>
</svg>
