<svg width="681" height="993" viewBox="0 0 681 993" fill="none" xmlns="http://www.w3.org/2000/svg">
<circle cx="766.066" cy="906.765" r="63.4578" transform="rotate(130.35 766.066 906.765)" fill="#42A5F5"/>
<ellipse cx="662.192" cy="1029.03" rx="61.4081" ry="61.4078" transform="rotate(130.35 662.192 1029.03)" fill="#42A5F5"/>
<circle cx="695.737" cy="741.765" r="31.7289" transform="rotate(130.35 695.737 741.765)" fill="#42A5F5"/>
<ellipse cx="591.869" cy="864.025" rx="54.9015" ry="54.9018" transform="rotate(130.35 591.869 864.025)" fill="#42A5F5"/>
<circle cx="487.996" cy="986.291" r="21.6576" transform="rotate(130.35 487.996 986.291)" fill="#42A5F5"/>
<ellipse cx="729.277" cy="454.503" rx="35.4726" ry="35.4723" transform="rotate(130.35 729.277 454.503)" fill="#42A5F5"/>
<circle cx="625.407" cy="576.766" r="22.3708" transform="rotate(130.35 625.407 576.766)" fill="#42A5F5"/>
<ellipse cx="521.538" cy="699.027" rx="12.121" ry="12.1213" transform="rotate(130.35 521.538 699.027)" fill="#42A5F5"/>
<circle cx="313.804" cy="943.55" r="9.53657" transform="rotate(130.35 313.804 943.55)" fill="#42A5F5"/>
<circle cx="139.606" cy="900.812" r="22.9055" transform="rotate(130.35 139.606 900.812)" fill="#42A5F5"/>
<ellipse cx="35.7364" cy="1023.08" rx="24.6876" ry="24.6879" transform="rotate(130.35 35.7364 1023.08)" fill="#42A5F5"/>
</svg>
