<svg width="26" height="22" viewBox="0 0 26 22" fill="none" xmlns="http://www.w3.org/2000/svg">
<path d="M4.4 6.3375L5.46875 4.4625L6.5375 6.3375M6.5375 7.84375L5.46875 9.71875L4.4 7.84375M4.4 14.1438L5.46875 12.2688L6.5375 14.1438M6.5375 15.65L5.46875 17.525L4.4 15.65M9.2 4.4875H22.3937M22.3937 7.09375H11.5312M13.8563 9.69375H22.3937M9.2 12.3063H22.3937M22.3937 14.9063H11.5312M13.8563 17.5125H22.3937M2.03125 1.25C1.71051 1.25792 1.4051 1.38887 1.17824 1.61574C0.95137 1.8426 0.820423 2.14801 0.8125 2.46875V19.5313C0.8125 19.8628 0.944196 20.1807 1.17862 20.4151C1.41304 20.6496 1.73098 20.7813 2.0625 20.7813H24C24.3315 20.7813 24.6495 20.6496 24.8839 20.4151C25.1183 20.1807 25.25 19.8628 25.25 19.5313V2.46875C25.2418 2.14268 25.1066 1.8327 24.873 1.605C24.6395 1.3773 24.3262 1.2499 24 1.25H2.03125Z" stroke="white" stroke-opacity="0.8" stroke-linecap="round" stroke-linejoin="round"/>
</svg>
