<svg width="130" height="130" viewBox="0 0 130 130" fill="none" xmlns="http://www.w3.org/2000/svg">
<circle cx="65" cy="65" r="65" fill="#51CC64"/>
<circle cx="65" cy="65" r="65" stroke="#51CC64"/>
<path fill-rule="evenodd" clip-rule="evenodd" d="M89.8748 45.2824C90.5778 46.1028 90.9728 47.2154 90.9728 48.3755C90.9728 49.5356 90.5778 50.6482 89.8748 51.4686L61.7673 84.2607C61.3959 84.6942 60.9549 85.038 60.4695 85.2726C59.9842 85.5072 59.4639 85.6279 58.9386 85.6279C58.4132 85.6279 57.893 85.5072 57.4076 85.2726C56.9223 85.038 56.4813 84.6942 56.1098 84.2607L42.1448 67.9711C41.7867 67.5676 41.501 67.0848 41.3045 66.551C41.1079 66.0173 41.0045 65.4432 41.0001 64.8623C40.9958 64.2814 41.0907 63.7053 41.2792 63.1676C41.4678 62.6299 41.7463 62.1415 42.0984 61.7307C42.4504 61.3199 42.8691 60.995 43.33 60.7751C43.7909 60.5551 44.2847 60.4444 44.7826 60.4494C45.2805 60.4545 45.7726 60.5752 46.2301 60.8045C46.6876 61.0337 47.1014 61.367 47.4473 61.7849L58.9373 75.1899L84.5698 45.2824C84.9181 44.8758 85.3316 44.5533 85.7867 44.3333C86.2418 44.1133 86.7297 44 87.2223 44C87.715 44 88.2028 44.1133 88.658 44.3333C89.1131 44.5533 89.5266 44.8758 89.8748 45.2824Z" fill="white"/>
</svg>
