<svg width="20" height="20" viewBox="0 0 20 20" fill="none" xmlns="http://www.w3.org/2000/svg">
<path d="M7.98633 12.5L7.98633 10" stroke="#FF9D9D" stroke-width="2" stroke-linecap="round"/>
<path d="M11.1797 12.5L11.1797 10" stroke="#FF9D9D" stroke-width="2" stroke-linecap="round"/>
<path d="M2.39648 5.8335H16.7715V5.8335C16.4038 5.8335 16.2199 5.8335 16.066 5.85761C15.2076 5.99213 14.5343 6.66547 14.3998 7.52386C14.3757 7.67774 14.3757 7.8616 14.3757 8.22933V12.6668C14.3757 14.5524 14.3757 15.4953 13.7899 16.081C13.2041 16.6668 12.2613 16.6668 10.3757 16.6668H8.79232C6.9067 16.6668 5.96389 16.6668 5.3781 16.081C4.79232 15.4953 4.79232 14.5524 4.79232 12.6668V8.22933C4.79232 7.8616 4.79232 7.67774 4.7682 7.52386C4.63369 6.66547 3.96034 5.99213 3.10195 5.85761C2.94807 5.8335 2.76421 5.8335 2.39648 5.8335V5.8335Z" stroke="#FF9D9D" stroke-width="1.5" stroke-linecap="round"/>
<path d="M8.03967 2.80883C8.13067 2.72023 8.33119 2.64194 8.61014 2.5861C8.88908 2.53027 9.23086 2.5 9.58247 2.5C9.93407 2.5 10.2758 2.53027 10.5548 2.5861C10.8337 2.64194 11.0343 2.72023 11.1253 2.80883" stroke="#FF9D9D" stroke-width="1.5" stroke-linecap="round"/>
</svg>
