<svg width="22" height="22" viewBox="0 0 22 22" fill="none" xmlns="http://www.w3.org/2000/svg">
<path d="M3.69703 18.016C2.32299 16.642 2.43468 14.2965 3.94612 12.785L7.48166 9.24949L5.95495 7.72278L2.41942 11.2583C-0.0201011 13.6978 -0.200092 17.4776 2.01765 19.6954C4.2354 21.9131 8.0152 21.7331 10.4547 19.2936L13.9903 15.7581L12.4635 14.2314L8.92801 17.7669C7.41657 19.2784 5.07107 19.39 3.69703 18.016ZM8.12448 15.1956L15.1956 8.12455L13.5885 6.51749L6.51742 13.5886L8.12448 15.1956ZM11.2583 2.41948L7.72272 5.95502L9.24943 7.48172L12.785 3.94619C14.2964 2.43475 16.6419 2.32306 18.0159 3.6971C19.39 5.07113 19.2783 7.41664 17.7668 8.92808L14.2313 12.4636L15.758 13.9903L19.2936 10.4548C21.7331 8.01527 21.9131 4.23546 19.6953 2.01772C17.4776 -0.200027 13.6978 -0.0200364 11.2583 2.41948Z" fill="#387ADF" fill-opacity="0.4"/>
</svg>
