<svg width="24" height="24" viewBox="0 0 24 24" fill="none" xmlns="http://www.w3.org/2000/svg">
<g clip-path="url(#clip0_1_3187)">
<path d="M18.667 20H4.00033V5.33333H12.8137L14.147 4H4.00033C3.6467 4 3.30756 4.14048 3.05752 4.39052C2.80747 4.64057 2.66699 4.97971 2.66699 5.33333V20C2.66699 20.3536 2.80747 20.6928 3.05752 20.9428C3.30756 21.1929 3.6467 21.3333 4.00033 21.3333H18.667C19.0206 21.3333 19.3598 21.1929 19.6098 20.9428C19.8598 20.6928 20.0003 20.3536 20.0003 20V10L18.667 11.3333V20Z" fill="#CCCCCC"/>
<path d="M22.3536 3.89313L20.107 1.64647C20.0073 1.54649 19.8888 1.46716 19.7584 1.41304C19.628 1.35891 19.4882 1.33105 19.347 1.33105C19.2058 1.33105 19.066 1.35891 18.9355 1.41304C18.8051 1.46716 18.6867 1.54649 18.587 1.64647L9.44696 10.8398L8.70696 14.0465C8.67544 14.2019 8.67875 14.3624 8.71667 14.5164C8.75458 14.6704 8.82616 14.8141 8.92625 14.9371C9.02633 15.0602 9.15244 15.1595 9.29551 15.228C9.43857 15.2964 9.59503 15.3324 9.75363 15.3331C9.83561 15.3422 9.91832 15.3422 10.0003 15.3331L13.2336 14.6198L22.3536 5.41313C22.4536 5.31343 22.5329 5.19497 22.5871 5.06456C22.6412 4.93415 22.669 4.79433 22.669 4.65313C22.669 4.51193 22.6412 4.37212 22.5871 4.24171C22.5329 4.11129 22.4536 3.99284 22.3536 3.89313ZM12.5403 13.3865L10.1003 13.9265L10.667 11.5065L17.547 4.5798L19.427 6.4598L12.5403 13.3865ZM20.1803 5.70647L18.3003 3.82647L19.3336 2.77313L21.227 4.66647L20.1803 5.70647Z" fill="#CCCCCC"/>
</g>
<defs>
<clipPath id="clip0_1_3187">
<rect width="24" height="24" fill="white"/>
</clipPath>
</defs>
</svg>
