<svg width="100" height="100" viewBox="0 0 100 100" fill="none" xmlns="http://www.w3.org/2000/svg">
<circle cx="50" cy="50" r="50" fill="#51CC64"/>
<circle cx="50" cy="50" r="50" stroke="#51CC64"/>
<path fill-rule="evenodd" clip-rule="evenodd" d="M73.8748 30.2824C74.5779 31.1028 74.9728 32.2154 74.9728 33.3755C74.9728 34.5356 74.5779 35.6482 73.8748 36.4686L45.7673 69.2607C45.3959 69.6942 44.9549 70.038 44.4695 70.2726C43.9842 70.5072 43.4639 70.6279 42.9386 70.6279C42.4132 70.6279 41.893 70.5072 41.4076 70.2726C40.9223 70.038 40.4813 69.6942 40.1098 69.2607L26.1448 52.9711C25.7867 52.5676 25.501 52.0848 25.3045 51.551C25.1079 51.0173 25.0045 50.4432 25.0001 49.8623C24.9958 49.2814 25.0907 48.7053 25.2792 48.1676C25.4678 47.6299 25.7463 47.1415 26.0984 46.7307C26.4504 46.3199 26.8691 45.995 27.33 45.7751C27.7909 45.5551 28.2847 45.4444 28.7826 45.4494C29.2805 45.4545 29.7726 45.5752 30.2301 45.8045C30.6876 46.0337 31.1014 46.367 31.4473 46.7849L42.9373 60.1899L68.5698 30.2824C68.9181 29.8758 69.3316 29.5533 69.7867 29.3333C70.2418 29.1133 70.7297 29 71.2223 29C71.715 29 72.2028 29.1133 72.658 29.3333C73.1131 29.5533 73.5266 29.8758 73.8748 30.2824Z" fill="white"/>
</svg>
