<svg width="26" height="25" viewBox="0 0 26 25" fill="none" xmlns="http://www.w3.org/2000/svg">
<path d="M7.56836 12.4999C7.56836 12.2927 7.65371 12.094 7.80563 11.9474C7.95755 11.8009 8.1636 11.7186 8.37846 11.7186H12.1513V8.08008C12.1513 7.87288 12.2367 7.67416 12.3886 7.52765C12.5405 7.38114 12.7466 7.29883 12.9614 7.29883C13.1763 7.29883 13.3823 7.38114 13.5343 7.52765C13.6862 7.67416 13.7715 7.87288 13.7715 8.08008V11.7186H17.5444C17.7593 11.7186 17.9653 11.8009 18.1172 11.9474C18.2692 12.094 18.3545 12.2927 18.3545 12.4999C18.3545 12.7071 18.2692 12.9058 18.1172 13.0523C17.9653 13.1988 17.7593 13.2811 17.5444 13.2811H13.7715V16.9197C13.7715 17.1269 13.6862 17.3256 13.5343 17.4721C13.3823 17.6186 13.1763 17.7009 12.9614 17.7009C12.7466 17.7009 12.5405 17.6186 12.3886 17.4721C12.2367 17.3256 12.1513 17.1269 12.1513 16.9197V13.2811H8.37846C8.1636 13.2811 7.95755 13.1988 7.80563 13.0523C7.65371 12.9058 7.56836 12.7071 7.56836 12.4999Z" fill="#387ADF"/>
<path fill-rule="evenodd" clip-rule="evenodd" d="M7.90348 3.92581C11.2653 3.5664 14.6581 3.5664 18.02 3.92581C19.9934 4.13831 21.5865 5.63727 21.8177 7.55081C22.2173 10.8394 22.2173 14.1612 21.8177 17.4498C21.5855 19.3633 19.9923 20.8612 18.02 21.0748C14.6581 21.4342 11.2653 21.4342 7.90348 21.0748C5.93008 20.8612 4.33689 19.3633 4.10575 17.4498C3.70694 14.1613 3.70694 10.8393 4.10575 7.55081C4.33689 5.63727 5.93116 4.13831 7.90348 3.92581ZM17.8407 5.4779C14.598 5.13127 11.3255 5.13127 8.08278 5.4779C7.48249 5.54212 6.92218 5.79964 6.49237 6.20885C6.06257 6.61806 5.78836 7.15506 5.71406 7.73311C5.32991 10.9008 5.32991 14.1008 5.71406 17.2685C5.78859 17.8464 6.06289 18.3831 6.49268 18.7921C6.92247 19.2011 7.48265 19.4585 8.08278 19.5227C11.2983 19.8685 14.6251 19.8685 17.8407 19.5227C18.4406 19.4583 19.0005 19.2008 19.4301 18.7918C19.8597 18.3829 20.1338 17.8462 20.2083 17.2685C20.5925 14.1008 20.5925 10.9008 20.2083 7.73311C20.1336 7.1556 19.8593 6.6192 19.4298 6.21042C19.0002 5.80165 18.4404 5.54433 17.8407 5.47998" fill="#387ADF"/>
</svg>
