<svg width="20" height="18" viewBox="0 0 20 18" fill="none" xmlns="http://www.w3.org/2000/svg">
<path d="M8.60645 11.25L8.60645 9" stroke="#FF9D9D" stroke-width="2" stroke-linecap="round"/>
<path d="M11.709 11.25L11.709 9" stroke="#FF9D9D" stroke-width="2" stroke-linecap="round"/>
<path d="M3.17773 5.25H17.1391V5.25C16.8355 5.25 16.6837 5.25 16.5562 5.26646C15.6547 5.38282 14.9451 6.09247 14.8287 6.99396C14.8122 7.12145 14.8122 7.27327 14.8122 7.5769V11C14.8122 12.8856 14.8122 13.8284 14.2264 14.4142C13.6407 15 12.6978 15 10.8122 15H9.50463C7.61902 15 6.67621 15 6.09042 14.4142C5.50463 13.8284 5.50463 12.8856 5.50463 11V7.5769C5.50463 7.27327 5.50463 7.12145 5.48818 6.99396C5.37181 6.09247 4.66217 5.38282 3.76067 5.26646C3.63318 5.25 3.48137 5.25 3.17773 5.25V5.25Z" stroke="#FF9D9D" stroke-width="1.5" stroke-linecap="round"/>
<path d="M8.65931 2.52794C8.74769 2.44821 8.94245 2.37775 9.21337 2.32749C9.48429 2.27724 9.81623 2.25 10.1577 2.25C10.4992 2.25 10.8311 2.27724 11.1021 2.32749C11.373 2.37775 11.5677 2.44821 11.6561 2.52794" stroke="#FF9D9D" stroke-width="1.5" stroke-linecap="round"/>
</svg>
