<svg width="4" height="19" viewBox="0 0 4 19" fill="none" xmlns="http://www.w3.org/2000/svg">
<path d="M0 16.875C0 16.3777 0.197544 15.9008 0.549175 15.5492C0.900805 15.1975 1.37772 15 1.875 15C2.37228 15 2.84919 15.1975 3.20083 15.5492C3.55246 15.9008 3.75 16.3777 3.75 16.875C3.75 17.3723 3.55246 17.8492 3.20083 18.2008C2.84919 18.5525 2.37228 18.75 1.875 18.75C1.37772 18.75 0.900805 18.5525 0.549175 18.2008C0.197544 17.8492 0 17.3723 0 16.875ZM0 9.375C0 8.87772 0.197544 8.40081 0.549175 8.04918C0.900805 7.69754 1.37772 7.5 1.875 7.5C2.37228 7.5 2.84919 7.69754 3.20083 8.04918C3.55246 8.40081 3.75 8.87772 3.75 9.375C3.75 9.87228 3.55246 10.3492 3.20083 10.7008C2.84919 11.0525 2.37228 11.25 1.875 11.25C1.37772 11.25 0.900805 11.0525 0.549175 10.7008C0.197544 10.3492 0 9.87228 0 9.375ZM0 1.875C0 1.37772 0.197544 0.900805 0.549175 0.549175C0.900805 0.197544 1.37772 0 1.875 0C2.37228 0 2.84919 0.197544 3.20083 0.549175C3.55246 0.900805 3.75 1.37772 3.75 1.875C3.75 2.37228 3.55246 2.84919 3.20083 3.20083C2.84919 3.55246 2.37228 3.75 1.875 3.75C1.37772 3.75 0.900805 3.55246 0.549175 3.20083C0.197544 2.84919 0 2.37228 0 1.875Z" fill="#B1B1B1"/>
</svg>
