<svg width="20" height="20" viewBox="0 0 20 20" fill="none" xmlns="http://www.w3.org/2000/svg">
<path d="M13.7696 5.78424L13.2382 6.2935L13.7696 5.78424L13.7468 5.76044C13.5209 5.52467 13.3143 5.30902 13.1255 5.14791C12.9214 4.97379 12.6757 4.80712 12.3577 4.7367C12.1085 4.68148 11.8501 4.68148 11.6008 4.7367C11.2829 4.80712 11.0372 4.97379 10.8331 5.14791C10.6443 5.30902 10.4376 5.52468 10.2117 5.76045L10.1889 5.78424L4.62506 11.59C4.61304 11.6025 4.60092 11.6151 4.58871 11.6278C4.43914 11.7833 4.27833 11.9504 4.16508 12.1579C4.05183 12.3654 3.99823 12.5911 3.94837 12.801C3.9443 12.8181 3.94026 12.8351 3.93621 12.852L3.45805 14.8478C3.45553 14.8583 3.45296 14.869 3.45035 14.8799C3.41399 15.0311 3.36942 15.2165 3.35534 15.3766C3.33944 15.5575 3.34136 15.9141 3.63342 16.2004C3.92547 16.4866 4.28206 16.4814 4.4626 16.4619C4.6224 16.4446 4.80681 16.3963 4.95727 16.3569C4.96809 16.3541 4.97873 16.3513 4.98917 16.3486L6.82935 15.8686C6.8469 15.864 6.86459 15.8594 6.88239 15.8548C7.1004 15.7984 7.33485 15.7377 7.54748 15.6129C7.76011 15.4881 7.92731 15.3129 8.08279 15.15C8.09548 15.1367 8.1081 15.1235 8.12065 15.1104L13.7696 9.21576L13.7912 9.19322C14 8.97544 14.1923 8.7748 14.3361 8.59216C14.4925 8.39361 14.6402 8.15806 14.7029 7.8588C14.7524 7.62217 14.7524 7.37783 14.7029 7.1412C14.6402 6.84194 14.4925 6.60639 14.3361 6.40784C14.1923 6.22519 14 6.02456 13.7912 5.80678L13.7696 5.78424Z" stroke="#CCCCCC" stroke-width="1.5"/>
<path d="M9.98242 6.24992L12.3783 4.58325L14.7741 7.08325L13.1769 9.58325L9.98242 6.24992Z" fill="#CCCCCC"/>
</svg>
