<svg width="30" height="30" viewBox="0 0 30 30" fill="none" xmlns="http://www.w3.org/2000/svg">
<path d="M6.4 10.3375L7.46875 8.4625L8.5375 10.3375M8.5375 11.8438L7.46875 13.7188L6.4 11.8438M6.4 18.1438L7.46875 16.2688L8.5375 18.1438M8.5375 19.65L7.46875 21.525L6.4 19.65M11.2 8.4875H24.3937M24.3937 11.0938H13.5312M15.8563 13.6938H24.3937M11.2 16.3063H24.3937M24.3937 18.9063H13.5312M15.8563 21.5125H24.3937M4.03125 5.25C3.71051 5.25792 3.4051 5.38887 3.17824 5.61574C2.95137 5.8426 2.82042 6.14801 2.8125 6.46875V23.5313C2.8125 23.8628 2.9442 24.1807 3.17862 24.4151C3.41304 24.6496 3.73098 24.7813 4.0625 24.7813H26C26.3315 24.7813 26.6495 24.6496 26.8839 24.4151C27.1183 24.1807 27.25 23.8628 27.25 23.5313V6.46875C27.2418 6.14268 27.1066 5.8327 26.873 5.605C26.6395 5.3773 26.3262 5.2499 26 5.25H4.03125Z" stroke="white" stroke-opacity="0.8" stroke-linecap="round" stroke-linejoin="round"/>
</svg>
