<svg width="20" height="20" viewBox="0 0 20 20" fill="none" xmlns="http://www.w3.org/2000/svg">
<path d="M9.58333 0.833496C10.0636 0.833398 10.5292 0.999239 10.9012 1.30295C11.2733 1.60666 11.5289 2.02959 11.625 2.50016H14.1667C14.8297 2.50016 15.4656 2.76355 15.9344 3.2324C16.4033 3.70124 16.6667 4.33712 16.6667 5.00016V15.8335C16.6667 16.4965 16.4033 17.1324 15.9344 17.6013C15.4656 18.0701 14.8297 18.3335 14.1667 18.3335H5C4.33696 18.3335 3.70107 18.0701 3.23223 17.6013C2.76339 17.1324 2.5 16.4965 2.5 15.8335V5.00016C2.5 4.33712 2.76339 3.70124 3.23223 3.2324C3.70107 2.76355 4.33696 2.50016 5 2.50016H7.54167C7.63772 2.02959 7.89341 1.60666 8.26546 1.30295C8.63751 0.999239 9.10306 0.833398 9.58333 0.833496ZM10.7583 2.50016C10.6726 2.25698 10.5136 2.04638 10.3031 1.8974C10.0927 1.74843 9.84118 1.66843 9.58333 1.66843C9.32549 1.66843 9.074 1.74843 8.86354 1.8974C8.65309 2.04638 8.49404 2.25698 8.40833 2.50016H10.7583ZM5 3.3335C4.55797 3.3335 4.13405 3.50909 3.82149 3.82165C3.50893 4.13421 3.33333 4.55814 3.33333 5.00016V15.8335C3.33333 16.2755 3.50893 16.6994 3.82149 17.012C4.13405 17.3246 4.55797 17.5002 5 17.5002H14.1667C14.6087 17.5002 15.0326 17.3246 15.3452 17.012C15.6577 16.6994 15.8333 16.2755 15.8333 15.8335V5.00016C15.8333 4.55814 15.6577 4.13421 15.3452 3.82165C15.0326 3.50909 14.6087 3.3335 14.1667 3.3335H13.3333V5.8335H5.83333V3.3335H5ZM6.66667 3.3335V5.00016H12.5V3.3335H6.66667Z" fill="#757575"/>
</svg>
