<svg width="24" height="24" viewBox="0 0 24 24" fill="none" xmlns="http://www.w3.org/2000/svg">
<path fill-rule="evenodd" clip-rule="evenodd" d="M0 0H20.6669V3.33307H19.3335V1.33323H1.33335V16.6653H15.5915V17.9986H0V0ZM20.0002 8.66597C20.5306 8.66597 21.0393 8.45528 21.4144 8.08023C21.7895 7.70519 22.0002 7.19652 22.0002 6.66613C22.0002 6.13574 21.7895 5.62707 21.4144 5.25203C21.0393 4.87699 20.5306 4.66629 20.0002 4.66629C19.4697 4.66629 18.961 4.87699 18.586 5.25203C18.2109 5.62707 18.0002 6.13574 18.0002 6.66613C18.0002 7.19652 18.2109 7.70519 18.586 8.08023C18.961 8.45528 19.4697 8.66597 20.0002 8.66597ZM21.3542 10.0059C22.2202 10.0059 22.9055 10.3952 23.3542 10.9965C23.7736 11.5597 23.9509 12.2563 23.9909 12.8996C24.0305 13.5595 23.9406 14.2208 23.7262 14.8461C23.5262 15.4261 23.1882 16.026 22.6669 16.4373V22.9982C22.6674 23.2494 22.5732 23.4916 22.4033 23.6766C22.2333 23.8616 21.9999 23.9758 21.7495 23.9966C21.4991 24.0173 21.25 23.9431 21.0519 23.7886C20.8538 23.6341 20.7211 23.4107 20.6802 23.1628L19.8202 17.9986H19.6215L18.6495 23.1821C18.6033 23.4268 18.4676 23.6454 18.2688 23.7953C18.0699 23.9451 17.8223 24.0154 17.5744 23.9924C17.3265 23.9694 17.0961 23.8548 16.9282 23.6709C16.7604 23.487 16.6672 23.2471 16.6668 22.9982V13.4876C16.5335 13.6906 16.4019 13.8949 16.2722 14.1002L16.2201 14.1822L16.2068 14.2035L16.2035 14.2095C16.1136 14.3538 15.9885 14.4728 15.8399 14.5552C15.6913 14.6377 15.5241 14.6809 15.3541 14.6808H12.0208C11.7556 14.6808 11.5012 14.5755 11.3137 14.388C11.1261 14.2004 11.0208 13.9461 11.0208 13.6809C11.0208 13.4157 11.1261 13.1614 11.3137 12.9739C11.5012 12.7863 11.7556 12.681 12.0208 12.681H14.8055C14.9675 12.4303 15.1808 12.105 15.4048 11.7784C15.6381 11.4377 15.8955 11.0771 16.1248 10.7945C16.2361 10.6565 16.3608 10.5125 16.4862 10.3945C16.5475 10.3365 16.6328 10.2612 16.7368 10.1945C16.92 10.0734 17.1345 10.008 17.3542 10.0065L21.3542 10.0059Z" fill="#CCCCCC"/>
</svg>
