<svg width="20" height="20" viewBox="0 0 20 20" fill="none" xmlns="http://www.w3.org/2000/svg">
<path d="M5.55556 6.93253V8.94291H2.22222V17.9896H17.7778V8.94291H14.4444V6.93253H17.7778C18.3671 6.93253 18.9324 7.14434 19.3491 7.52136C19.7659 7.89838 20 8.40972 20 8.94291V17.9896C20 18.5228 19.7659 19.0342 19.3491 19.4112C18.9324 19.7882 18.3671 20 17.7778 20H2.22222C1.63285 20 1.06762 19.7882 0.650874 19.4112C0.234126 19.0342 0 18.5228 0 17.9896V8.94291C0 8.40972 0.234126 7.89838 0.650874 7.52136C1.06762 7.14434 1.63285 6.93253 2.22222 6.93253H5.55556ZM10.9822 0.367632L14.7144 3.74306C14.9229 3.93168 15.0401 4.18749 15.0401 4.45423C15.0401 4.72097 14.9229 4.97679 14.7144 5.1654C14.506 5.35402 14.2232 5.45998 13.9283 5.45998C13.6335 5.45998 13.3507 5.35402 13.1422 5.1654L11.1111 3.32691V12.9637C11.1111 13.2303 10.994 13.4859 10.7857 13.6744C10.5773 13.863 10.2947 13.9689 10 13.9689C9.70532 13.9689 9.4227 13.863 9.21433 13.6744C9.00595 13.4859 8.88889 13.2303 8.88889 12.9637V3.32691L6.85778 5.1654C6.75454 5.2588 6.63199 5.33288 6.49711 5.38342C6.36223 5.43397 6.21766 5.45998 6.07167 5.45998C5.92567 5.45998 5.78111 5.43397 5.64623 5.38342C5.51135 5.33288 5.38879 5.2588 5.28556 5.1654C5.18232 5.07201 5.10043 4.96114 5.04456 4.83912C4.98869 4.71709 4.95994 4.58631 4.95994 4.45423C4.95994 4.32216 4.98869 4.19137 5.04456 4.06935C5.10043 3.94733 5.18232 3.83645 5.28556 3.74306L9.01889 0.367632C9.27932 0.13223 9.63241 0 10.0006 0C10.3687 0 10.7218 0.13223 10.9822 0.367632Z" fill="#387ADF" fill-opacity="0.4"/>
</svg>
