<svg width="24" height="23" viewBox="0 0 24 23" fill="none" xmlns="http://www.w3.org/2000/svg">
<g clip-path="url(#clip0_1065_2782)">
<path d="M12.1895 0.258972C18.3328 0.258972 23.6895 5.10997 23.6895 10.709C23.6895 16.2134 18.4535 20.5452 12.1895 20.5452C10.8497 20.5459 9.51828 20.3431 8.24495 19.9446C7.71135 20.4396 7.5285 20.6079 6.39575 21.6529C5.57925 22.2425 4.81105 22.4427 4.1245 22.0709C3.4322 21.6969 3.22405 20.9687 3.3655 20.0095L3.8255 17.4586C1.82795 15.6612 0.689453 13.2852 0.689453 10.709C0.689453 5.10997 6.045 0.258972 12.1895 0.258972ZM12.1895 1.79897C6.91555 1.79897 2.29945 5.97897 2.29945 10.709C2.29945 12.9585 3.34825 15.0298 5.19745 16.572L5.22045 16.5907L5.562 16.8745L5.48495 17.3035L5.32625 18.1879L5.2837 18.4233L4.95595 20.2471C4.93662 20.3699 4.9251 20.4936 4.92145 20.6178V20.7223C4.92145 20.7278 4.91915 20.7311 4.91915 20.7311C4.9272 20.7201 5.0836 20.6728 5.35155 20.4858L7.84705 18.1692L8.32315 18.3408C9.55989 18.7822 10.8694 19.0076 12.1895 19.0063C17.6129 19.0063 22.0795 15.3103 22.0795 10.709C22.0795 5.98007 17.4634 1.79897 12.1895 1.79897ZM6.7005 8.85327C6.93218 8.84518 7.16319 8.88183 7.37972 8.96105C7.59625 9.04027 7.79387 9.16043 7.96077 9.31434C8.12766 9.46825 8.26041 9.65276 8.35108 9.85685C8.44175 10.0609 8.48848 10.2804 8.48848 10.5022C8.48848 10.7239 8.44175 10.9434 8.35108 11.1475C8.26041 11.3516 8.12766 11.5361 7.96077 11.69C7.79387 11.8439 7.59625 11.9641 7.37972 12.0433C7.16319 12.1225 6.93218 12.1592 6.7005 12.1511C6.25421 12.1355 5.83163 11.9549 5.52166 11.6474C5.21168 11.3399 5.03848 10.9293 5.03848 10.5022C5.03848 10.075 5.21168 9.66447 5.52166 9.35694C5.83163 9.04942 6.25421 8.86887 6.7005 8.85327ZM12.4482 8.85327C12.6799 8.84518 12.9109 8.88183 13.1274 8.96105C13.344 9.04027 13.5416 9.16043 13.7085 9.31434C13.8754 9.46825 14.0081 9.65276 14.0988 9.85685C14.1894 10.0609 14.2362 10.2804 14.2362 10.5022C14.2362 10.7239 14.1894 10.9434 14.0988 11.1475C14.0081 11.3516 13.8754 11.5361 13.7085 11.69C13.5416 11.8439 13.344 11.9641 13.1274 12.0433C12.9109 12.1225 12.6799 12.1592 12.4482 12.1511C12.0019 12.1355 11.5793 11.9549 11.2694 11.6474C10.9594 11.3399 10.7862 10.9293 10.7862 10.5022C10.7862 10.075 10.9594 9.66447 11.2694 9.35694C11.5793 9.04942 12.0019 8.86887 12.4482 8.85327ZM18.1948 8.85327C18.4264 8.84518 18.6574 8.88183 18.874 8.96105C19.0905 9.04027 19.2881 9.16043 19.455 9.31434C19.6219 9.46825 19.7547 9.65276 19.8453 9.85685C19.936 10.0609 19.9827 10.2804 19.9827 10.5022C19.9827 10.7239 19.936 10.9434 19.8453 11.1475C19.7547 11.3516 19.6219 11.5361 19.455 11.69C19.2881 11.8439 19.0905 11.9641 18.874 12.0433C18.6574 12.1225 18.4264 12.1592 18.1948 12.1511C17.7485 12.1355 17.3259 11.9549 17.0159 11.6474C16.7059 11.3399 16.5327 10.9293 16.5327 10.5022C16.5327 10.075 16.7059 9.66447 17.0159 9.35694C17.3259 9.04942 17.7485 8.86887 18.1948 8.85327Z" fill="#387ADF"/>
<path d="M21.5 5.0625C22.0719 5.0625 22.6203 4.8452 23.0247 4.45841C23.4291 4.07161 23.6562 3.54701 23.6562 3C23.6562 2.45299 23.4291 1.92839 23.0247 1.54159C22.6203 1.1548 22.0719 0.9375 21.5 0.9375C20.9281 0.9375 20.3797 1.1548 19.9753 1.54159C19.5709 1.92839 19.3438 2.45299 19.3438 3C19.3438 3.54701 19.5709 4.07161 19.9753 4.45841C20.3797 4.8452 20.9281 5.0625 21.5 5.0625Z" fill="#FF0000"/>
</g>
<defs>
<clipPath id="clip0_1065_2782">
<rect width="23" height="22" fill="white" transform="translate(0.689453 0.258972)"/>
</clipPath>
</defs>
</svg>
