
<svg width="37" height="37" viewBox="0 0 37 37" fill="none" xmlns="http://www.w3.org/2000/svg">
<circle cx="18.7407" cy="18.3325" r="18" fill="white" fill-opacity="0.5"/>
<path d="M16.7407 26.2075C16.7407 25.7102 16.9383 25.2333 17.2899 24.8817C17.6415 24.5301 18.1184 24.3325 18.6157 24.3325C19.113 24.3325 19.5899 24.5301 19.9415 24.8817C20.2932 25.2333 20.4907 25.7102 20.4907 26.2075C20.4907 26.7048 20.2932 27.1817 19.9415 27.5333C19.5899 27.885 19.113 28.0825 18.6157 28.0825C18.1184 28.0825 17.6415 27.885 17.2899 27.5333C16.9383 27.1817 16.7407 26.7048 16.7407 26.2075ZM16.7407 18.7075C16.7407 18.2102 16.9383 17.7333 17.2899 17.3817C17.6415 17.0301 18.1184 16.8325 18.6157 16.8325C19.113 16.8325 19.5899 17.0301 19.9415 17.3817C20.2932 17.7333 20.4907 18.2102 20.4907 18.7075C20.4907 19.2048 20.2932 19.6817 19.9415 20.0333C19.5899 20.385 19.113 20.5825 18.6157 20.5825C18.1184 20.5825 17.6415 20.385 17.2899 20.0333C16.9383 19.6817 16.7407 19.2048 16.7407 18.7075ZM16.7407 11.2075C16.7407 10.7102 16.9383 10.2333 17.2899 9.88169C17.6415 9.53006 18.1184 9.33252 18.6157 9.33252C19.113 9.33252 19.5899 9.53006 19.9415 9.88169C20.2932 10.2333 20.4907 10.7102 20.4907 11.2075C20.4907 11.7048 20.2932 12.1817 19.9415 12.5333C19.5899 12.885 19.113 13.0825 18.6157 13.0825C18.1184 13.0825 17.6415 12.885 17.2899 12.5333C16.9383 12.1817 16.7407 11.7048 16.7407 11.2075Z" fill="#B1B1B1"/>
</svg>
