<svg width="23" height="24" viewBox="0 0 23 24" fill="none" xmlns="http://www.w3.org/2000/svg">
<path d="M5.59668 14.076L5.58331 14.09L5.5833 14.09C5.57128 14.1025 5.55915 14.1152 5.54695 14.1278C5.39738 14.2833 5.23657 14.4505 5.12332 14.6579C5.01008 14.8654 4.95647 15.0911 4.90662 15.301C4.90255 15.3181 4.89851 15.3351 4.89446 15.352L4.25657 18.0145C4.25405 18.025 4.25148 18.0357 4.24887 18.0466C4.21251 18.1978 4.16794 18.3831 4.15387 18.5433C4.13797 18.7241 4.13988 19.0808 4.43194 19.367C4.724 19.6533 5.08059 19.6481 5.26112 19.6285C5.42093 19.6113 5.60534 19.563 5.7558 19.5236C5.76661 19.5208 5.77725 19.518 5.7877 19.5153L8.26676 18.8686C8.28431 18.864 8.302 18.8594 8.31979 18.8548C8.53781 18.7984 8.77226 18.7377 8.98489 18.6129L8.61321 17.9799L8.98489 18.6129C9.19751 18.4881 9.36471 18.3129 9.52018 18.15C9.53288 18.1367 9.5455 18.1235 9.55805 18.1104L9.55806 18.1104L9.57607 18.0916L9.57607 18.0916L16.4654 10.9027L16.4955 10.8713C16.7832 10.5711 17.048 10.2949 17.2345 10.0406C17.4403 9.75997 17.615 9.42306 17.615 9C17.615 8.57694 17.4403 8.24003 17.2345 7.95941C17.048 7.70511 16.7832 7.42888 16.4955 7.12867L16.4654 7.09726L16.3605 6.98783C16.3499 6.97674 16.3393 6.96567 16.3287 6.95464C16.0171 6.6294 15.7324 6.3323 15.469 6.12321C15.1796 5.89351 14.8263 5.69528 14.375 5.69528C13.9238 5.69528 13.5704 5.89351 13.281 6.12321C13.0176 6.3323 12.733 6.62939 12.4214 6.95463C12.4108 6.96567 12.4002 6.97673 12.3896 6.98783L5.59668 14.076Z" stroke="#757575" stroke-width="1.5"/>
<path d="M11.9792 7.5L14.8542 5.5L17.7292 8.5L15.8125 11.5L11.9792 7.5Z" fill="#33363F"/>
</svg>
