<svg width="27" height="27" viewBox="0 0 27 27" fill="none" xmlns="http://www.w3.org/2000/svg">
<path d="M23.5 12.25V11C23.5 6.28625 23.5 3.92875 21.95 2.465C20.3975 1 17.9025 1 12.9125 1H11.5875C6.59625 1 4.1 1 2.55 2.465C1 3.93 1 6.28625 1 11V16C1 20.7137 1 23.0712 2.55 24.535C4.1 25.9987 6.5975 26 11.5875 26H12.25M7.25 7.25H17.25M7.25 13.5H17.25M24.575 16.55L25.4437 17.415C25.6182 17.5889 25.7567 17.7954 25.8512 18.0229C25.9457 18.2504 25.9943 18.4943 25.9943 18.7406C25.9943 18.9869 25.9457 19.2308 25.8512 19.4583C25.7567 19.6858 25.6182 19.8924 25.4437 20.0663L20.8963 24.6862C20.5384 25.0432 20.0808 25.2834 19.5837 25.375L16.7662 25.985C16.664 26.0076 16.5577 26.0042 16.4572 25.9751C16.3566 25.9459 16.2649 25.892 16.1907 25.8182C16.1164 25.7444 16.0618 25.6531 16.032 25.5528C16.0022 25.4524 15.998 25.3461 16.02 25.2438L16.62 22.45C16.7125 21.9537 16.9538 21.4975 17.3125 21.1413L21.9162 16.5488C22.2693 16.1971 22.7473 15.9996 23.2456 15.9996C23.7439 15.9996 24.2219 16.1983 24.575 16.55Z" stroke="#FB8F2C" stroke-width="1.7" stroke-linecap="round" stroke-linejoin="round"/>
</svg>
