<svg width="17" height="15" viewBox="0 0 17 15" fill="none" xmlns="http://www.w3.org/2000/svg">
<path d="M3.4 3.52941C3.4 3.06138 3.57911 2.61252 3.89792 2.28158C4.21673 1.95063 4.64913 1.76471 5.1 1.76471C5.55087 1.76471 5.98327 1.95063 6.30208 2.28158C6.62089 2.61252 6.8 3.06138 6.8 3.52941C6.8 3.99744 6.62089 4.4463 6.30208 4.77725C5.98327 5.10819 5.55087 5.29412 5.1 5.29412C4.64913 5.29412 4.21673 5.10819 3.89792 4.77725C3.57911 4.4463 3.4 3.99744 3.4 3.52941ZM5.1 0C4.19826 0 3.33346 0.371848 2.69584 1.03374C2.05821 1.69563 1.7 2.59335 1.7 3.52941C1.7 4.46547 2.05821 5.36319 2.69584 6.02508C3.33346 6.68698 4.19826 7.05882 5.1 7.05882C6.00174 7.05882 6.86654 6.68698 7.50416 6.02508C8.14179 5.36319 8.5 4.46547 8.5 3.52941C8.5 2.59335 8.14179 1.69563 7.50416 1.03374C6.86654 0.371848 6.00174 0 5.1 0ZM11.9 4.41176C11.9 4.17775 11.9896 3.95332 12.149 3.78785C12.3084 3.62237 12.5246 3.52941 12.75 3.52941C12.9754 3.52941 13.1916 3.62237 13.351 3.78785C13.5104 3.95332 13.6 4.17775 13.6 4.41176C13.6 4.64578 13.5104 4.87021 13.351 5.03568C13.1916 5.20116 12.9754 5.29412 12.75 5.29412C12.5246 5.29412 12.3084 5.20116 12.149 5.03568C11.9896 4.87021 11.9 4.64578 11.9 4.41176ZM12.75 1.76471C12.0737 1.76471 11.4251 2.04359 10.9469 2.54001C10.4687 3.03643 10.2 3.70972 10.2 4.41176C10.2 5.11381 10.4687 5.7871 10.9469 6.28352C11.4251 6.77994 12.0737 7.05882 12.75 7.05882C13.4263 7.05882 14.0749 6.77994 14.5531 6.28352C15.0313 5.7871 15.3 5.11381 15.3 4.41176C15.3 3.70972 15.0313 3.03643 14.5531 2.54001C14.0749 2.04359 13.4263 1.76471 12.75 1.76471ZM0 11.0294C0 9.81176 0.952 8.82353 2.125 8.82353H8.075C9.248 8.82353 10.2 9.81176 10.2 11.0294V11.1141C10.1988 11.1784 10.1943 11.2427 10.1864 11.3065C10.1707 11.461 10.1451 11.6143 10.1099 11.7653C9.9951 12.2533 9.79014 12.7136 9.5064 13.1206C8.7856 14.1494 7.4426 15 5.1 15C2.7574 15 1.4144 14.1494 0.6936 13.1206C0.322201 12.5856 0.0881779 11.9613 0.0136 11.3065L0 11.1124V11.0294ZM1.7 11.0753L1.7034 11.1229C1.70793 11.1735 1.72097 11.2494 1.7425 11.3506C1.7884 11.55 1.8819 11.8165 2.0689 12.0829C2.4089 12.57 3.1909 13.2353 5.1 13.2353C7.0091 13.2353 7.7894 12.57 8.1311 12.0829C8.33547 11.7862 8.46254 11.4397 8.5 11.0771V11.0294C8.5 10.9124 8.45522 10.8002 8.37552 10.7175C8.29582 10.6347 8.18772 10.5882 8.075 10.5882H2.125C2.01228 10.5882 1.90418 10.6347 1.82448 10.7175C1.74478 10.8002 1.7 10.9124 1.7 11.0294V11.0753ZM12.7483 14.1176C12.1465 14.1153 11.6178 14.0565 11.1622 13.9412C11.4719 13.4312 11.6923 12.8684 11.8133 12.2788C12.0762 12.3259 12.3879 12.3506 12.7483 12.3529C14.2613 12.3529 14.8359 11.8729 15.0603 11.5818C15.1833 11.4195 15.2651 11.2277 15.2983 11.0241V11.0153C15.2948 10.9008 15.2484 10.7921 15.1691 10.7124C15.0898 10.6327 14.9837 10.5882 14.8733 10.5882H11.8762C11.809 9.95679 11.5961 9.35146 11.2557 8.82353H14.875C16.048 8.82353 17 9.81176 17 11.0294V11.0594C16.9985 11.1143 16.9945 11.169 16.9881 11.2235C16.9209 11.7576 16.7139 12.2624 16.3897 12.6829C15.7624 13.4947 14.6387 14.1176 12.75 14.1176" fill="#757575"/>
</svg>
