<svg width="23" height="24" viewBox="0 0 23 24" fill="none" xmlns="http://www.w3.org/2000/svg">
<path d="M9.58331 15L9.58331 12" stroke="#FF9D9D" stroke-width="2" stroke-linecap="round"/>
<path d="M13.4167 15L13.4167 12" stroke="#FF9D9D" stroke-width="2" stroke-linecap="round"/>
<path d="M2.875 7H20.125V7C19.3103 7 18.903 7 18.5762 7.11691C18.0124 7.31865 17.5686 7.7624 17.3669 8.32622C17.25 8.65297 17.25 9.06031 17.25 9.875V16C17.25 17.8856 17.25 18.8284 16.6642 19.4142C16.0784 20 15.1356 20 13.25 20H9.75C7.86438 20 6.92157 20 6.33579 19.4142C5.75 18.8284 5.75 17.8856 5.75 16V9.875C5.75 9.06031 5.75 8.65297 5.63309 8.32622C5.43135 7.7624 4.9876 7.31865 4.42378 7.11691C4.09703 7 3.68969 7 2.875 7V7Z" stroke="#FF9D9D" stroke-width="1.5" stroke-linecap="round"/>
<path d="M9.64866 3.37059C9.75786 3.26427 9.99849 3.17033 10.3332 3.10332C10.668 3.03632 11.0781 3 11.5 3C11.9219 3 12.3321 3.03632 12.6668 3.10332C13.0015 3.17033 13.2422 3.26427 13.3514 3.37059" stroke="#FF9D9D" stroke-width="1.5" stroke-linecap="round"/>
</svg>
