<svg width="20" height="20" viewBox="0 0 20 20" fill="none" xmlns="http://www.w3.org/2000/svg">
<path fill-rule="evenodd" clip-rule="evenodd" d="M6.04102 8.33333C6.04102 7.28352 6.45805 6.2767 7.20038 5.53437C7.94272 4.79204 8.94953 4.375 9.99935 4.375C11.0492 4.375 12.056 4.79204 12.7983 5.53437C13.5406 6.2767 13.9577 7.28352 13.9577 8.33333C13.9577 9.38315 13.5406 10.39 12.7983 11.1323C12.056 11.8746 11.0492 12.2917 9.99935 12.2917C8.94953 12.2917 7.94272 11.8746 7.20038 11.1323C6.45805 10.39 6.04102 9.38315 6.04102 8.33333ZM9.99935 5.625C9.28105 5.625 8.59218 5.91034 8.08427 6.41825C7.57636 6.92616 7.29102 7.61504 7.29102 8.33333C7.29102 9.05163 7.57636 9.7405 8.08427 10.2484C8.59218 10.7563 9.28105 11.0417 9.99935 11.0417C10.7176 11.0417 11.4065 10.7563 11.9144 10.2484C12.4223 9.7405 12.7077 9.05163 12.7077 8.33333C12.7077 7.61504 12.4223 6.92616 11.9144 6.41825C11.4065 5.91034 10.7176 5.625 9.99935 5.625Z" fill="#B1AEAE"/>
<path fill-rule="evenodd" clip-rule="evenodd" d="M2.93633 7.38067C3.07877 5.65301 3.86568 4.04208 5.14084 2.86773C6.416 1.69338 8.08614 1.0415 9.81966 1.0415H10.1797C11.9132 1.0415 13.5833 1.69338 14.8585 2.86773C16.1336 4.04208 16.9206 5.65301 17.063 7.38067C17.2215 9.30507 16.627 11.2159 15.4047 12.7107L11.4105 17.5948C11.2396 17.8039 11.0243 17.9723 10.7803 18.088C10.5363 18.2036 10.2697 18.2636 9.99966 18.2636C9.72964 18.2636 9.463 18.2036 9.219 18.088C8.97501 17.9723 8.75976 17.8039 8.58883 17.5948L4.59466 12.7107C3.37226 11.2159 2.77773 9.30508 2.93633 7.38067ZM9.81966 2.2915C8.40006 2.29172 7.03244 2.82569 5.98826 3.78744C4.94408 4.74918 4.29969 6.06838 4.183 7.48317C4.051 9.08472 4.54573 10.675 5.563 11.919L9.55716 16.804C9.61086 16.8697 9.67849 16.9227 9.75516 16.959C9.83184 16.9954 9.91564 17.0143 10.0005 17.0143C10.0854 17.0143 10.1692 16.9954 10.2458 16.959C10.3225 16.9227 10.3901 16.8697 10.4438 16.804L14.438 11.919C15.4547 10.6747 15.9488 9.0845 15.8163 7.48317C15.6996 6.06823 15.0551 4.74892 14.0108 3.78716C12.9664 2.82539 11.5986 2.29151 10.1788 2.2915H9.81966Z" fill="#B1AEAE"/>
</svg>
