<svg width="20" height="20" viewBox="0 0 20 20" fill="none" xmlns="http://www.w3.org/2000/svg">
<path fill-rule="evenodd" clip-rule="evenodd" d="M6.66699 1.66683C6.66699 1.20659 6.2939 0.833496 5.83366 0.833496C5.37342 0.833496 5.00032 1.20659 5.00032 1.66683V2.50016H4.16699C3.50395 2.50016 2.86807 2.76355 2.39923 3.2324C1.93038 3.70124 1.66699 4.33712 1.66699 5.00016V15.8335C1.66699 16.4965 1.93038 17.1324 2.39923 17.6013C2.86807 18.0701 3.50395 18.3335 4.16699 18.3335H15.8337C16.4967 18.3335 17.1326 18.0701 17.6014 17.6013C18.0703 17.1324 18.3337 16.4965 18.3337 15.8335V5.00016C18.3337 4.33712 18.0703 3.70124 17.6014 3.2324C17.1326 2.76355 16.4967 2.50016 15.8337 2.50016H15.417C14.9568 2.50016 14.5837 2.87326 14.5837 3.3335C14.5837 3.79373 14.9568 4.16683 15.417 4.16683H15.8337C16.0547 4.16683 16.2666 4.25463 16.4229 4.41091C16.5792 4.56719 16.667 4.77915 16.667 5.00016V7.50016H3.33366V5.00016C3.33366 4.77915 3.42146 4.56719 3.57774 4.41091C3.73402 4.25463 3.94598 4.16683 4.16699 4.16683H5.00032V5.00016C5.00032 5.4604 5.37342 5.8335 5.83366 5.8335C6.2939 5.8335 6.66699 5.4604 6.66699 5.00016V1.66683ZM3.57774 16.4228C3.42146 16.2665 3.33366 16.0545 3.33366 15.8335V9.16683H16.667V15.8335C16.667 16.0545 16.5792 16.2665 16.4229 16.4228C16.2666 16.579 16.0547 16.6668 15.8337 16.6668H4.16699C3.94598 16.6668 3.73402 16.579 3.57774 16.4228Z" fill="#B1AEAE"/>
<path d="M13.3337 1.66683C13.3337 1.20659 12.9606 0.833496 12.5003 0.833496C12.0401 0.833496 11.667 1.20659 11.667 1.66683V2.50016H8.75032C8.29009 2.50016 7.91699 2.87326 7.91699 3.3335C7.91699 3.79373 8.29009 4.16683 8.75032 4.16683H11.667V5.00016C11.667 5.4604 12.0401 5.8335 12.5003 5.8335C12.9606 5.8335 13.3337 5.4604 13.3337 5.00016V1.66683Z" fill="#B1AEAE"/>
</svg>
