<svg width="27" height="27" viewBox="0 0 27 27" fill="none" xmlns="http://www.w3.org/2000/svg">
<circle cx="13.5" cy="13.5" r="13.5" fill="#387ADF"/>
<path fill-rule="evenodd" clip-rule="evenodd" d="M18.7195 12.5188L20.0898 11.1289L20.0898 11.1289L20.0898 11.1289C20.3093 10.9063 20.419 10.795 20.4989 10.6889C21.0357 9.97643 21.0357 8.99455 20.4989 8.28203C20.419 8.17595 20.3093 8.06466 20.0899 7.8421L20.0898 7.84206L20.0898 7.84205C19.8647 7.6137 19.7521 7.49953 19.645 7.41688C18.9251 6.86104 17.9207 6.86104 17.2007 7.41688C17.0936 7.49953 16.9811 7.6137 16.7559 7.84203L16.7559 7.84205L15.4151 9.20205C16.199 10.5771 17.3386 11.725 18.7195 12.5188ZM13.9668 10.671L8.58299 16.1318L8.58299 16.1318C8.16424 16.5566 7.95487 16.7689 7.81747 17.0287C7.68006 17.2885 7.62237 17.5811 7.50698 18.1663L7.06272 20.4193C6.9971 20.7521 6.96429 20.9185 7.05916 21.0129C7.15403 21.1072 7.32024 21.0735 7.65268 21.0061L9.8304 20.5643C10.4241 20.4439 10.7209 20.3837 10.9833 20.2416C11.2456 20.0995 11.4583 19.8838 11.8836 19.4524L17.2769 13.982C15.9441 13.1287 14.8156 11.9971 13.9668 10.671Z" fill="white"/>
</svg>
