<svg width="17" height="17" viewBox="0 0 17 17" fill="none" xmlns="http://www.w3.org/2000/svg">
<path d="M1 10.0001C1 8.1144 1 7.17157 1.58579 6.58579C2.17157 6 3.11438 6 5 6H12C13.8856 6 14.8284 6 15.4142 6.58579C16 7.17157 16 8.1144 16 10.0001V10.0001C16 12.8286 16 14.2428 15.1213 15.1215C14.2426 16.0002 12.8284 16.0002 10 16.0002H7C4.17157 16.0002 2.75736 16.0002 1.87868 15.1215C1 14.2428 1 12.8286 1 10.0001V10.0001Z" stroke="#C2C2C2" stroke-width="2"/>
<path d="M12.25 5.16673V4.75C12.25 2.67893 10.5711 1 8.5 1V1C6.42893 1 4.75 2.67893 4.75 4.75V5.16673" stroke="#C2C2C2" stroke-width="2" stroke-linecap="round"/>
</svg>
