<svg width="20" height="20" viewBox="0 0 20 20" fill="none" xmlns="http://www.w3.org/2000/svg">
<g clip-path="url(#clip0_1_3737)">
<path fill-rule="evenodd" clip-rule="evenodd" d="M9.99967 6.66634C9.11562 6.66634 8.26777 7.01753 7.64265 7.64265C7.01753 8.26777 6.66634 9.11562 6.66634 9.99967C6.66634 10.8837 7.01753 11.7316 7.64265 12.3567C8.26777 12.9818 9.11562 13.333 9.99967 13.333C10.8837 13.333 11.7316 12.9818 12.3567 12.3567C12.9818 11.7316 13.333 10.8837 13.333 9.99967C13.333 9.11562 12.9818 8.26777 12.3567 7.64265C11.7316 7.01753 10.8837 6.66634 9.99967 6.66634ZM8.82116 8.82116C9.13372 8.5086 9.55765 8.33301 9.99967 8.33301C10.4417 8.33301 10.8656 8.5086 11.1782 8.82116C11.4907 9.13372 11.6663 9.55765 11.6663 9.99967C11.6663 10.4417 11.4907 10.8656 11.1782 11.1782C10.8656 11.4907 10.4417 11.6663 9.99967 11.6663C9.55765 11.6663 9.13372 11.4907 8.82116 11.1782C8.5086 10.8656 8.33301 10.4417 8.33301 9.99967C8.33301 9.55765 8.5086 9.13372 8.82116 8.82116Z" fill="#757575"/>
<path fill-rule="evenodd" clip-rule="evenodd" d="M9.15051 0.833008C8.77197 0.833008 8.44098 1.08814 8.34462 1.45421L7.92233 3.05855L6.58063 3.62414L5.55358 2.71041C5.22383 2.41703 4.72251 2.43166 4.41042 2.74375L2.74375 4.41042C2.44183 4.71234 2.41696 5.19361 2.68615 5.52505L3.58625 6.6333L3.03429 7.99124L1.47689 8.35483C1.09978 8.44287 0.833008 8.77909 0.833008 9.16634V10.833C0.833008 11.2088 1.0845 11.5381 1.44702 11.637L3.05675 12.0761L3.62388 13.4214L2.71106 14.445C2.41705 14.7747 2.43139 15.2766 2.74375 15.5889L4.41042 17.2556C4.71274 17.5579 5.19482 17.5824 5.52621 17.3123L6.63408 16.4091L7.95863 16.954L8.35837 18.537C8.45181 18.9071 8.78468 19.1663 9.16634 19.1663H10.833C11.2145 19.1663 11.5473 18.9073 11.6409 18.5374L12.0416 16.9537L13.4105 16.3868C13.5483 16.5022 13.7063 16.6379 13.8635 16.7748C14.0197 16.9108 14.1649 17.039 14.2711 17.1333C14.3242 17.1804 14.3674 17.2189 14.3973 17.2456L14.4426 17.2861C14.7721 17.5817 15.2759 17.5686 15.5889 17.2556L17.2556 15.5889C17.5623 15.2822 17.5825 14.7915 17.3019 14.4607L16.3942 13.3902L16.9559 12.0335L18.5426 11.6212C18.9099 11.5258 19.1663 11.1942 19.1663 10.8147V9.16634C19.1663 8.78524 18.9078 8.4527 18.5385 8.35873L16.9616 7.95754L16.4013 6.60412L17.3028 5.53763C17.5825 5.20676 17.5619 4.71677 17.2556 4.41042L15.5889 2.74375C15.2813 2.43616 14.7889 2.4169 14.4582 2.69955L13.3996 3.6044L11.9985 3.02834L11.5848 1.45448C11.4885 1.08828 11.1575 0.833008 10.7788 0.833008H9.15051ZM15.5343 14.9532L14.9642 15.5233L14.9579 15.5179C14.6502 15.2499 14.2537 14.9108 14.0302 14.7509C13.7961 14.5836 13.4924 14.5489 13.2266 14.6589L11.0175 15.5739C10.7743 15.6746 10.593 15.8843 10.5285 16.1394L10.1843 17.4997H9.8154L9.47181 16.139C9.40717 15.883 9.22504 15.6728 8.98086 15.5723L6.8092 14.679C6.52642 14.5627 6.20264 14.6106 5.96564 14.8038L5.05662 15.5448L4.47877 14.9669L5.21829 14.1376C5.43238 13.8976 5.48918 13.5557 5.36423 13.2593L4.43507 11.0551C4.33565 10.8193 4.1334 10.6422 3.8865 10.5749L2.49967 10.1966V9.82753L3.8333 9.51619C4.09676 9.45468 4.31396 9.2691 4.41584 9.01847L5.31584 6.8043C5.4303 6.52269 5.38235 6.2011 5.1907 5.96514L4.4536 5.05759L5.03307 4.47812L5.86577 5.21894C6.10583 5.43252 6.44729 5.48905 6.74338 5.36423L8.94755 4.43507C9.18578 4.33464 9.36391 4.12932 9.42972 3.8793L9.79287 2.49967H10.1363L10.4921 3.8532C10.5585 4.10585 10.7395 4.31273 10.9811 4.41207L13.2369 5.33957C13.5262 5.45848 13.8576 5.40548 14.0953 5.2023L14.9553 4.46718L15.5352 5.04702L14.8007 5.91588C14.5995 6.15399 14.548 6.48452 14.6672 6.77258L15.5814 8.98091C15.6819 9.22378 15.8911 9.40497 16.1459 9.46978L17.4997 9.81421V10.1702L16.1351 10.5248C15.8822 10.5905 15.6747 10.7711 15.5747 11.0126L14.6597 13.2226C14.5403 13.5111 14.5921 13.8421 14.7941 14.0803L15.5343 14.9532Z" fill="#757575"/>
</g>
<defs>
<clipPath id="clip0_1_3737">
<rect width="20" height="20" fill="white"/>
</clipPath>
</defs>
</svg>
