<svg width="12" height="12" viewBox="0 0 12 12" fill="none" xmlns="http://www.w3.org/2000/svg">
<path d="M2.66461 4.04912C2.66461 3.69108 2.80405 3.3477 3.05226 3.09453C3.30047 2.84135 3.63712 2.69912 3.98814 2.69912C4.33916 2.69912 4.6758 2.84135 4.92401 3.09453C5.17222 3.3477 5.31167 3.69108 5.31167 4.04912C5.31167 4.40716 5.17222 4.75054 4.92401 5.00372C4.6758 5.25689 4.33916 5.39912 3.98814 5.39912C3.63712 5.39912 3.30047 5.25689 3.05226 5.00372C2.80405 4.75054 2.66461 4.40716 2.66461 4.04912ZM3.98814 2.09912C3.48111 2.09912 2.99484 2.30457 2.63632 2.67026C2.27779 3.03596 2.07637 3.53195 2.07637 4.04912C2.07637 4.56629 2.27779 5.06228 2.63632 5.42798C2.99484 5.79368 3.48111 5.99912 3.98814 5.99912C4.49517 5.99912 4.98143 5.79368 5.33996 5.42798C5.69848 5.06228 5.8999 4.56629 5.8999 4.04912C5.8999 3.53195 5.69848 3.03596 5.33996 2.67026C4.98143 2.30457 4.49517 2.09912 3.98814 2.09912ZM7.33343 9.08612C7.6499 9.21812 8.04814 9.29912 8.54696 9.29912C9.65343 9.29912 10.2652 8.89832 10.5875 8.43872C10.7561 8.19774 10.8616 7.91688 10.894 7.62272C10.8969 7.5954 10.8989 7.56798 10.8999 7.54052V7.49912C10.8999 7.38093 10.8771 7.2639 10.8327 7.15471C10.7884 7.04551 10.7234 6.9463 10.6415 6.86273C10.5595 6.77915 10.4623 6.71286 10.3552 6.66763C10.2482 6.6224 10.1334 6.59912 10.0175 6.59912H7.29402C7.4352 6.77312 7.54108 6.97652 7.60284 7.19912H10.0175C10.0956 7.19912 10.1704 7.23073 10.2255 7.28699C10.2807 7.34325 10.3117 7.41956 10.3117 7.49912V7.53152L10.3087 7.56152C10.2866 7.75187 10.2179 7.93347 10.1087 8.08952C9.91637 8.36492 9.49873 8.69912 8.54696 8.69912C8.11637 8.69912 7.7952 8.63072 7.55461 8.53052C7.50637 8.69852 7.43637 8.88812 7.33343 9.08612ZM0.899902 7.79912C0.899902 7.48086 1.02385 7.17564 1.24448 6.95059C1.46511 6.72555 1.76435 6.59912 2.07637 6.59912H5.8999C6.21192 6.59912 6.51116 6.72555 6.73179 6.95059C6.95242 7.17564 7.07637 7.48086 7.07637 7.79912V7.84952L7.0752 7.87352L7.06931 7.95452C7.02762 8.34336 6.89222 8.71563 6.6752 9.03812C6.26284 9.64712 5.46637 10.1991 3.98814 10.1991C2.5099 10.1991 1.71343 9.64712 1.30108 9.03872C1.08396 8.71606 0.948558 8.34357 0.906961 7.95452C0.903605 7.9196 0.901251 7.88458 0.899902 7.84952V7.79912ZM1.48814 7.83512V7.84592L1.49226 7.89572C1.52418 8.18333 1.62476 8.45857 1.7852 8.69732C2.07167 9.11972 2.67226 9.59912 3.98814 9.59912C5.30402 9.59912 5.90461 9.11972 6.19108 8.69732C6.35152 8.45857 6.4521 8.18333 6.48402 7.89572C6.48637 7.87292 6.48755 7.85632 6.48755 7.84592L6.48814 7.83572V7.79912C6.48814 7.63999 6.42616 7.48738 6.31585 7.37486C6.20553 7.26234 6.05591 7.19912 5.8999 7.19912H2.07637C1.92036 7.19912 1.77074 7.26234 1.66043 7.37486C1.55011 7.48738 1.48814 7.63999 1.48814 7.79912V7.83512ZM7.66461 4.49912C7.66461 4.26043 7.75757 4.03151 7.92304 3.86273C8.08852 3.69394 8.31295 3.59912 8.54696 3.59912C8.78098 3.59912 9.00541 3.69394 9.17088 3.86273C9.33635 4.03151 9.42931 4.26043 9.42931 4.49912C9.42931 4.73782 9.33635 4.96673 9.17088 5.13552C9.00541 5.3043 8.78098 5.39912 8.54696 5.39912C8.31295 5.39912 8.08852 5.3043 7.92304 5.13552C7.75757 4.96673 7.66461 4.73782 7.66461 4.49912ZM8.54696 2.99912C8.15694 2.99912 7.78289 3.15716 7.5071 3.43846C7.23131 3.71977 7.07637 4.1013 7.07637 4.49912C7.07637 4.89695 7.23131 5.27848 7.5071 5.55978C7.78289 5.84109 8.15694 5.99912 8.54696 5.99912C8.93699 5.99912 9.31104 5.84109 9.58682 5.55978C9.86261 5.27848 10.0175 4.89695 10.0175 4.49912C10.0175 4.1013 9.86261 3.71977 9.58682 3.43846C9.31104 3.15716 8.93699 2.99912 8.54696 2.99912Z" fill="#757575"/>
</svg>
