<svg width="14" height="15" viewBox="0 0 14 15" fill="none" xmlns="http://www.w3.org/2000/svg">
<path fill-rule="evenodd" clip-rule="evenodd" d="M6.66667 0C5.5616 0 4.50179 0.438987 3.72039 1.22039C2.93899 2.00179 2.5 3.0616 2.5 4.16667C2.5 5.27174 2.93899 6.33154 3.72039 7.11294C3.77536 7.16791 3.8317 7.22119 3.88934 7.27273C3.17558 7.59981 2.51848 8.05343 1.95262 8.61929C0.702379 9.86953 0 11.5652 0 13.3333V14.1667C0 14.6269 0.373096 15 0.833333 15C1.29357 15 1.66667 14.6269 1.66667 14.1667V13.3333C1.66667 12.0073 2.19345 10.7355 3.13113 9.7978C4.06881 8.86012 5.34058 8.33333 6.66667 8.33333C7.99275 8.33333 9.26452 8.86012 10.2022 9.7978C11.1399 10.7355 11.6667 12.0073 11.6667 13.3333V14.1667C11.6667 14.6269 12.0398 15 12.5 15C12.9602 15 13.3333 14.6269 13.3333 14.1667V13.3333C13.3333 11.5652 12.631 9.86953 11.3807 8.61929C10.8149 8.05343 10.1578 7.59981 9.44399 7.27273C9.50163 7.22119 9.55798 7.16791 9.61294 7.11294C10.3943 6.33154 10.8333 5.27174 10.8333 4.16667C10.8333 3.0616 10.3943 2.00179 9.61294 1.22039C8.83154 0.438987 7.77173 0 6.66667 0ZM4.8989 2.3989C5.36774 1.93006 6.00362 1.66667 6.66667 1.66667C7.32971 1.66667 7.96559 1.93006 8.43443 2.3989C8.90327 2.86774 9.16667 3.50363 9.16667 4.16667C9.16667 4.82971 8.90327 5.46559 8.43443 5.93443C7.96559 6.40327 7.32971 6.66667 6.66667 6.66667C6.00362 6.66667 5.36774 6.40327 4.8989 5.93443C4.43006 5.46559 4.16667 4.82971 4.16667 4.16667C4.16667 3.50363 4.43006 2.86774 4.8989 2.3989Z" fill="#C2C2C2"/>
</svg>
