<svg width="20" height="20" viewBox="0 0 20 20" fill="none" xmlns="http://www.w3.org/2000/svg">
<path fill-rule="evenodd" clip-rule="evenodd" d="M9.99967 6.66732C9.11562 6.66732 8.26777 7.01851 7.64265 7.64363C7.01753 8.26875 6.66634 9.1166 6.66634 10.0007C6.66634 10.8847 7.01753 11.7326 7.64265 12.3577C8.26777 12.9828 9.11562 13.334 9.99967 13.334C10.8837 13.334 11.7316 12.9828 12.3567 12.3577C12.9818 11.7326 13.333 10.8847 13.333 10.0007C13.333 9.1166 12.9818 8.26875 12.3567 7.64363C11.7316 7.01851 10.8837 6.66732 9.99967 6.66732ZM8.82116 8.82214C9.13372 8.50958 9.55765 8.33398 9.99967 8.33398C10.4417 8.33398 10.8656 8.50958 11.1782 8.82214C11.4907 9.1347 11.6663 9.55862 11.6663 10.0007C11.6663 10.4427 11.4907 10.8666 11.1782 11.1792C10.8656 11.4917 10.4417 11.6673 9.99967 11.6673C9.55765 11.6673 9.13372 11.4917 8.82116 11.1792C8.5086 10.8666 8.33301 10.4427 8.33301 10.0007C8.33301 9.55862 8.5086 9.1347 8.82116 8.82214Z" fill="#757575"/>
<path fill-rule="evenodd" clip-rule="evenodd" d="M9.15051 0.833984C8.77197 0.833984 8.44098 1.08912 8.34462 1.45519L7.92233 3.05952L6.58063 3.62512L5.55358 2.71139C5.22383 2.41801 4.72251 2.43263 4.41042 2.74473L2.74375 4.4114C2.44183 4.71331 2.41696 5.19459 2.68615 5.52602L3.58625 6.63428L3.03429 7.99221L1.47689 8.35581C1.09978 8.44385 0.833008 8.78007 0.833008 9.16732V10.834C0.833008 11.2098 1.0845 11.539 1.44702 11.6379L3.05675 12.0771L3.62388 13.4224L2.71106 14.446C2.41705 14.7757 2.43139 15.2775 2.74375 15.5899L4.41042 17.2566C4.71274 17.5589 5.19482 17.5834 5.52621 17.3132L6.63408 16.4101L7.95863 16.955L8.35837 18.538C8.45181 18.908 8.78468 19.1673 9.16634 19.1673H10.833C11.2145 19.1673 11.5473 18.9083 11.6409 18.5384L12.0416 16.9547L13.4105 16.3877C13.5483 16.5032 13.7063 16.6389 13.8635 16.7758C14.0197 16.9118 14.1649 17.04 14.2711 17.1343C14.3242 17.1814 14.3674 17.2199 14.3973 17.2466L14.4426 17.287C14.7721 17.5827 15.2759 17.5696 15.5889 17.2566L17.2556 15.5899C17.5623 15.2832 17.5825 14.7925 17.3019 14.4617L16.3942 13.3912L16.9559 12.0345L18.5426 11.6222C18.9099 11.5268 19.1663 11.1952 19.1663 10.8156V9.16732C19.1663 8.78622 18.9078 8.45368 18.5385 8.35971L16.9616 7.95852L16.4013 6.6051L17.3028 5.53861C17.5825 5.20773 17.5619 4.71774 17.2556 4.4114L15.5889 2.74473C15.2813 2.43713 14.7889 2.41788 14.4582 2.70052L13.3996 3.60538L11.9985 3.02931L11.5848 1.45546C11.4885 1.08926 11.1575 0.833984 10.7788 0.833984H9.15051ZM15.5343 14.9542L14.9642 15.5243L14.9579 15.5188C14.6502 15.2509 14.2537 14.9118 14.0302 14.7519C13.7961 14.5846 13.4924 14.5498 13.2266 14.6599L11.0175 15.5749C10.7743 15.6756 10.593 15.8853 10.5285 16.1404L10.1843 17.5006H9.8154L9.47181 16.14C9.40717 15.884 9.22504 15.6738 8.98086 15.5733L6.8092 14.68C6.52642 14.5637 6.20264 14.6115 5.96564 14.8047L5.05662 15.5458L4.47877 14.9679L5.21829 14.1386C5.43238 13.8985 5.48918 13.5567 5.36423 13.2603L4.43507 11.0561C4.33565 10.8203 4.1334 10.6432 3.8865 10.5759L2.49967 10.1975V9.82851L3.8333 9.51716C4.09676 9.45566 4.31396 9.27008 4.41584 9.01945L5.31584 6.80528C5.4303 6.52367 5.38235 6.20207 5.1907 5.96611L4.4536 5.05856L5.03307 4.47909L5.86577 5.21992C6.10583 5.43349 6.44729 5.49002 6.74338 5.36521L8.94755 4.43604C9.18578 4.33562 9.36391 4.1303 9.42972 3.88028L9.79287 2.50065H10.1363L10.4921 3.85418C10.5585 4.10682 10.7395 4.31371 10.9811 4.41305L13.2369 5.34055C13.5262 5.45946 13.8576 5.40645 14.0953 5.20328L14.9553 4.46815L15.5352 5.04799L14.8007 5.91686C14.5995 6.15496 14.548 6.48549 14.6672 6.77355L15.5814 8.98189C15.6819 9.22475 15.8911 9.40595 16.1459 9.47076L17.4997 9.81518V10.1712L16.1351 10.5258C15.8822 10.5915 15.6747 10.7721 15.5747 11.0135L14.6597 13.2235C14.5403 13.512 14.5921 13.8431 14.7941 14.0813L15.5343 14.9542Z" fill="#757575"/>
</svg>
